<svg xmlns="http://www.w3.org/2000/svg" viewBox="0 0 198.43 192.21"><defs><style>.cls-1{fill:#fff;}</style></defs><g id="Capa_2" data-name="Capa 2"><g id="Capa_2-2" data-name="Capa 2"><path class="cls-1" d="M198.21,40.32A12.38,12.38,0,0,0,186.74,29.9c-5.17-.45-10.57,3.25-12.33,8.44a12.46,12.46,0,0,0,4.9,14.45c2,1.37,2.44,2.41,1.88,4.79-.09.35-.16.7-.25,1a23.87,23.87,0,0,1-8.16,13.44,22.88,22.88,0,0,1-14.07,5.5,21.89,21.89,0,0,1-9.84-1.66c8.65-27.86,2.64-51-21.85-67.4a51.38,51.38,0,0,0-60,2.44C45.36,28,40.33,50.31,49.09,76.3c0,0-.06.09-.16.14a2.67,2.67,0,0,1-.63.32,22.5,22.5,0,0,1-13,0c-9.53-3-15.12-9.69-17.1-19.48-.35-1.76.07-3,2.1-4.22a11,11,0,0,0,5.25-8.3A12.91,12.91,0,1,0,0,42.3,13,13,0,0,0,7.33,54l.24.25c2.32,2.34,2.09,4.92,3.23,9.27A30.44,30.44,0,0,0,15,72.82a31,31,0,0,0,17.3,12.8A33.75,33.75,0,0,0,49,86.1a4.29,4.29,0,0,1,1.23.18,9.08,9.08,0,0,1-.37,1.19c-3.12,6.78-4.47,14-5,21.37a3.07,3.07,0,0,1-1.35,1.89c-3.66,2.39-6.11,5.64-6.37,10.41A13.29,13.29,0,0,0,43,132.88a11.62,11.62,0,0,0,12.31.71c9.42-4.82,9.93-17,1-22.72a2.83,2.83,0,0,1-1.52-2.79,40.6,40.6,0,0,1,4.47-17.71,39.14,39.14,0,0,1,4.6-7.6c2.65-3.1,5.81-5.74,8.73-8.6,2.2-2.17,2.42-4.6.67-6.79a4.71,4.71,0,0,0-6.89-.72c-2.18,1.72-4.15,3.69-6.18,5.59-.48.45-1,.82-1.42.67s-.47-.56-.52-.74c-3-10.78-3-12.88-3-12.88-.1-7.57-.15-11.35.94-15.81A44.52,44.52,0,0,1,68.75,21.87q8.52-8,21.61-10.91a40.92,40.92,0,0,1,30.23,5,43.67,43.67,0,0,1,20.78,27.25,43,43,0,0,1,.1,22.31c-.55,2.21-1,4.45-1.6,6.64a2,2,0,0,1-1.15,1.21c-.34.11-1-.34-1.32-.69-2.09-2-4-4.26-6.25-6.09-2.72-2.21-5-1.06-6.57.71-2,2.27-1.75,4.64.38,6.8a12.33,12.33,0,0,0,1.1,1.07,41.15,41.15,0,0,1,8.37,8.66c4.63,6.8,8,14.08,8.31,22.24.12,3.51.15,7,.15,10.54h0v9.85a2.83,2.83,0,0,1-.26,1.26,2.92,2.92,0,0,1-1,1.1,12.1,12.1,0,0,0-1.13.73,13.23,13.23,0,0,0-4.72,15.61c0,.09.08.17.12.26a13.27,13.27,0,0,0,25.64-5A13.43,13.43,0,0,0,154,128.35c-.29-.26-.67-.35-.94-.85a3.41,3.41,0,0,1-.23-1.32c-.06-.89-.09-1.49-.11-1.7v-.64h0c.05-5,.09-10-.05-14.93a53,53,0,0,0-2.93-16.29c-.84-2.38-1.8-4.71-2.8-7.29.48.11.76.16,1,.24a30.88,30.88,0,0,0,13.91,1.1,31.66,31.66,0,0,0,22.15-13,22.07,22.07,0,0,0,2.83-5.89c.83-2.35,1.49-4.76,2.12-7.17.55-2.08,1.16-5.18,2.48-6.37,2.26-2,1-.76,1.46-1.21a20.41,20.41,0,0,0,4.5-5.75A11.74,11.74,0,0,0,198.21,40.32ZM12.9,45.67a3.29,3.29,0,0,1-1.72-.5,3.57,3.57,0,0,1-1.29-2.85A3.53,3.53,0,0,1,12.35,39a3.31,3.31,0,0,1,.55,0,3.37,3.37,0,0,1,0,6.74Zm37,79.51a3,3,0,0,1-3.06-3.31A3.05,3.05,0,1,1,53,122,3,3,0,0,1,49.92,125.18Zm98.49,19.11a3.26,3.26,0,0,1-3.2-3.35,3,3,0,0,1,3.18-3.3,3,3,0,0,1,3.26,3.18A3.25,3.25,0,0,1,148.41,144.29ZM186.08,46a3.6,3.6,0,1,1,3.64-3.47A3.53,3.53,0,0,1,186.08,46Z"/><path class="cls-1" d="M94.52,168.23c-.28-.25-.64-.34-.89-.8a3.2,3.2,0,0,1-.21-1.25c-.06-.84-.09-1.4-.11-1.59,0-.79,0-1.57,0-2.36.12-12.31,0-24.61,0-36.92,0-4.28,0-11.52,0-17h0c-.08-8.3-.15-16.64-.17-24.94,0-1.77.15-3.36-1.22-4.79a4.51,4.51,0,0,0-5.11-1.24,35.1,35.1,0,0,0-15.58,11.4,32.82,32.82,0,0,0-5.89,11.5c-.72,2.48-.7,5.18-1,7.79,0,.3,0,.61,0,.91v20.75h0v8a2.69,2.69,0,0,1-.26,1.22,2.72,2.72,0,0,1-1,1.06c-.37.22-.74.46-1.09.71a12.85,12.85,0,0,0-4.58,15.15c0,.09.08.17.11.26a12.88,12.88,0,0,0,24.88-4.83,13,13,0,0,0-7.29-11.72c-.29-.25-.65-.34-.92-.82a3.38,3.38,0,0,1-.21-1.28c0-.72-.08-1.24-.1-1.51v-.14c0-.53,0-9,0-27.82,0-.61,0-1.51.06-2.58A21.9,21.9,0,0,1,75.83,99c.46-.81,1-1.74,1.73-2.88a33,33,0,0,1,2-2.83,10.91,10.91,0,0,1,3-2.44,1.07,1.07,0,0,1,.55-.14.62.62,0,0,1,.42.28,1.89,1.89,0,0,1,.26,1c.21,5.35.23,10.71.2,16.06,0,.6,0,1.22,0,1.83h0c0,.19,0,.38,0,.57Q84,133.79,84,157.1v9.33a2.6,2.6,0,0,1-.25,1.18,2.57,2.57,0,0,1-.93,1c-.36.21-.71.45-1,.69A12.45,12.45,0,0,0,77.36,184l.12.25a12.52,12.52,0,1,0,17-16Zm-25-13.84a3.09,3.09,0,0,1-3-3.17,3.05,3.05,0,1,1,6.1-.11A3.08,3.08,0,0,1,69.48,154.39Zm19.74,28.82a3.07,3.07,0,0,1-3-3.15,3,3,0,1,1,6.06-.11A3.05,3.05,0,0,1,89.22,183.21Z"/><path class="cls-1" d="M134.08,155c-.28-.25-.65-.34-.91-.82A3.28,3.28,0,0,1,133,153c-.06-.86-.1-1.44-.11-1.64,0-.8,0-1.61,0-2.41,0-1.68,0-3.35,0-5h0v-1.14c0-1.17,0-2.33,0-3.5h0q0-15.1,0-30.22c0-.3,0-.61,0-.91-.3-2.61-.28-5.32-1-7.8A33,33,0,0,0,126,88.78a35.25,35.25,0,0,0-15.6-11.42,4.52,4.52,0,0,0-5.12,1.24c-1.37,1.44-1.22,3-1.22,4.8,0,9.61-.15,19.23-.24,28.84h0v7.85a2.5,2.5,0,0,1-.25,1.19,2.55,2.55,0,0,1-.94,1c-.37.22-.72.45-1.06.7a12.54,12.54,0,0,0-4.48,14.8,1.89,1.89,0,0,0,.11.25A12.63,12.63,0,1,0,114.4,121.9c-.28-.25-.64-.34-.9-.81a3.22,3.22,0,0,1-.21-1.26c-.06-.84-.09-1.41-.11-1.6,0-2.49,0-5,0-7.46,0-.89.06-1.78.06-2.66,0-5.36,0-10.73.2-16.09a2,2,0,0,1,.26-1,.57.57,0,0,1,.43-.27,1,1,0,0,1,.54.14,12.1,12.1,0,0,1,3.38,2.84,18.33,18.33,0,0,1,3.11,4.66,22.41,22.41,0,0,1,2.15,9.8c-.06,13.58,0,27.15,0,40.73v4.26a2.63,2.63,0,0,1-.26,1.21,2.71,2.71,0,0,1-1,1.06,12.43,12.43,0,0,0-1.08.7,12.74,12.74,0,0,0-4.55,15,1.89,1.89,0,0,0,.11.25A12.83,12.83,0,1,0,134.08,155Zm-25-18a3.09,3.09,0,0,1-3-3.17,3.06,3.06,0,1,1,6.11-.12A3.08,3.08,0,0,1,109.06,137Zm19.59,33.39a3.14,3.14,0,0,1-3.08-3.23,3.11,3.11,0,1,1,6.21-.11A3.13,3.13,0,0,1,128.65,170.39Z"/></g></g></svg>