<svg xmlns="http://www.w3.org/2000/svg" xmlns:xlink="http://www.w3.org/1999/xlink" viewBox="0 0 710.08 324.96"><defs><style>.cls-1,.cls-15,.cls-20,.cls-23,.cls-25,.cls-26,.cls-27,.cls-29,.cls-30,.cls-32,.cls-33,.cls-37,.cls-38,.cls-39,.cls-40,.cls-41,.cls-42,.cls-44,.cls-46,.cls-48,.cls-8{fill:none;}.cls-2{clip-path:url(#clip-path);}.cls-3{fill:#204473;}.cls-10,.cls-4,.cls-5{fill:#f2c3b3;}.cls-10,.cls-5{stroke:#ad7966;}.cls-10,.cls-15,.cls-20,.cls-23,.cls-25,.cls-26,.cls-27,.cls-29,.cls-30,.cls-32,.cls-33,.cls-35,.cls-37,.cls-38,.cls-39,.cls-40,.cls-41,.cls-42,.cls-44,.cls-46,.cls-48,.cls-5,.cls-8{stroke-linecap:round;stroke-linejoin:round;}.cls-15,.cls-20,.cls-5,.cls-8{stroke-width:0.46px;}.cls-6{fill:#26221e;}.cls-7{fill:#3981bf;}.cls-8{stroke:#8f8f8f;}.cls-9{fill:#bfbfbf;}.cls-10{stroke-width:0.76px;}.cls-11{fill:#fff;}.cls-12,.cls-35{fill:#694324;}.cls-13{fill:#ff7a7a;}.cls-14{fill:#ffbda8;}.cls-15{stroke:#b36751;}.cls-16{fill:#706550;}.cls-17{fill:#3b3129;}.cls-18{fill:#346647;}.cls-19{fill:#f26666;}.cls-20{stroke:#26221e;}.cls-21{fill:#cc8d78;}.cls-22{fill:#f2e3b3;}.cls-23,.cls-27{stroke:#8f5946;}.cls-23{stroke-width:0.48px;}.cls-24{fill:#5a4a73;}.cls-25{stroke:#a69577;stroke-width:0.57px;}.cls-26,.cls-42{stroke:#3b3129;}.cls-26{stroke-width:1.72px;}.cls-27{stroke-width:0.57px;}.cls-28{fill:#ff8787;}.cls-29,.cls-30,.cls-33,.cls-35,.cls-37{stroke:#402814;}.cls-29{stroke-width:0.37px;}.cls-30{stroke-width:0.32px;}.cls-31{fill:#f29979;}.cls-32,.cls-39,.cls-48{stroke:#b54545;}.cls-32{stroke-width:0.29px;}.cls-33{stroke-width:0.41px;}.cls-34{fill:#241c15;}.cls-35,.cls-37{stroke-width:0.72px;}.cls-36{fill:#ff8080;}.cls-38,.cls-40,.cls-41{stroke:#bf7862;}.cls-38{stroke-width:0.33px;}.cls-39,.cls-40{stroke-width:0.29px;}.cls-41{stroke-width:0.59px;}.cls-42{stroke-width:2.34px;}.cls-43{fill:#315e43;}.cls-44{stroke:#ab7260;stroke-width:0.45px;}.cls-45{fill:#6aa581;}.cls-46{stroke:#40634e;stroke-width:0.26px;}.cls-47{fill:#b54545;}.cls-48{stroke-width:1.95px;}.cls-49{fill:#295c3d;}.cls-50{fill:#4d2f16;}</style><clipPath id="clip-path" transform="translate(-1.32 -6.84)"><rect class="cls-1" width="723.16" height="323.44"/></clipPath></defs><g id="Capa_2" data-name="Capa 2"><g id="OBJECTS"><g class="cls-2"><path class="cls-3" d="M321.33,144.73c-6.22-3.73-13.45-5-19.81-8.64-16.56-9.41-30.9-28.38-34.7-47.12-4.43-17.61-1.46-37.45,9.89-51.62a9.35,9.35,0,0,0-6.18-4.61c-1.15-.3-6.34,7.53-7.07,8.56a74,74,0,0,0-12.59,32.21c-2.13,15.73,1.28,31.9,8.3,46,10,20.06,29.14,40,51.86,44.47,7,1.38,11.36-1,14.13-7.62a9.38,9.38,0,0,0,0-7.84A9.73,9.73,0,0,0,321.33,144.73Z" transform="translate(-1.32 -6.84)"/><path class="cls-4" d="M264.65,40.52a10.32,10.32,0,0,0,17.73-6.6,20.13,20.13,0,0,1,2.95-9.68c.22-.35-.25-1-.66-1a1.69,1.69,0,0,0-1.15.44,8.76,8.76,0,0,0-3.38,7.37,1,1,0,0,1-1,.23,1.05,1.05,0,0,1-.73-.77c-.47-2.28-.49-4.5-1.49-6.59a.59.59,0,0,1-.06-.32c.17-3,.44-6.43.62-9.45a7.29,7.29,0,0,0-.19-2.68v0a1.55,1.55,0,0,0-3,.35c-.51,3.41-.57,6.89-1.21,10.29a.94.94,0,0,1-1.09.73c-.42-.08-.68-.91-.46-1.28l-.07-9.94a8.37,8.37,0,0,0-.19-2.69A2.75,2.75,0,0,0,269.65,7a2,2,0,0,0-1.35,0c-.07,0,0,0-.08,0l0,14.67A1.27,1.27,0,0,1,267,22.91c-.61-3.45-1.4-6.89-2-10.34a5.79,5.79,0,0,0-.81-2.42,2,2,0,0,0-2.24-.83,77.89,77.89,0,0,0,.28,9.42A34,34,0,0,0,263.58,24a2.3,2.3,0,0,1,.12,1,.8.8,0,0,1-.64.7c-1.13.11-1.77-1.5-2.14-2.58a33.91,33.91,0,0,0-1-3.26,3.79,3.79,0,0,0-1.53-1.77.71.71,0,0,0-1.05.55,11.21,11.21,0,0,0,.81,5.36c.23.52.42,1,.68,1.49l2.21,4.26c.8,1.55.65,3.24,1,5a16.53,16.53,0,0,0,.79,3.19A8.2,8.2,0,0,0,264.65,40.52Z" transform="translate(-1.32 -6.84)"/><path class="cls-5" d="M268.76,39.5a32,32,0,0,0-1-6.24A10.54,10.54,0,0,0,264.43,28" transform="translate(-1.32 -6.84)"/><path class="cls-5" d="M274.49,27.18A17.91,17.91,0,0,0,272,36.71" transform="translate(-1.32 -6.84)"/><polygon class="cls-6" points="330.42 210.98 311.83 209.77 320.32 265.14 328.81 265.95 330.42 210.98"/><polygon class="cls-6" points="330.42 216.24 359.12 323.75 349.02 324.96 323.96 261.51 330.42 216.24"/><polygon class="cls-6" points="313.45 213 299.3 322.13 306.58 322.94 324.36 258.68 313.45 213"/><path class="cls-3" d="M310.58,140.29l49.49,9.86-33.15,89.69-11.36.64c-4.64-16.44-9.32-31.57-11-48.56S303.64,155.9,310.58,140.29Z" transform="translate(-1.32 -6.84)"/><path class="cls-4" d="M343.81,146.76l.28,0L321,169.65l1-27.17Z" transform="translate(-1.32 -6.84)"/><polygon class="cls-7" points="342.77 139.96 337.2 165.54 328.05 157.87 319.64 162.81 342.77 139.96"/><polygon class="cls-7" points="320.59 135.64 319.64 161.04 319.63 162.87 316.55 155.18 307.95 159.1 320.59 135.64"/><polygon class="cls-3" points="331.13 215.03 340.53 248.98 306.58 248.98 309.51 215.13 331.13 215.03"/><path class="cls-8" d="M291.28,77.31a2.42,2.42,0,0,1-2-.48" transform="translate(-1.32 -6.84)"/><path class="cls-4" d="M348.39,111.07l-5.76,36.07a14.78,14.78,0,0,1-15.38,1.61c-2.18-1.11-4.24-3.14-4.1-5.58l16.71-31.77Z" transform="translate(-1.32 -6.84)"/><path class="cls-9" d="M369.78,107.87l7.66-15.34c3.21-1.56,4.81-4.82,5.86-8.23a11.65,11.65,0,0,0,.44-6.6c-.62-2.14-2.52-4-4.75-4.06a20.77,20.77,0,0,0-2.11-16.38,26.55,26.55,0,0,0-12.32-9.92,47.09,47.09,0,0,0-15.67-3.2,83.5,83.5,0,0,0-28.82,3.65c-7,2.14-14.55.37-21.61-1.58a20.78,20.78,0,0,0-4.53-1,5.59,5.59,0,0,0-4.27,1.43,5.43,5.43,0,0,0-.85,5.65,13.58,13.58,0,0,0,3.61,4.78,11.29,11.29,0,0,0-3.58-.23,4.21,4.21,0,0,0-3.19,1.47,4.28,4.28,0,0,0-.24,4.3,12.49,12.49,0,0,0,2.77,3.55,3,3,0,0,0-3.3-.64,3.28,3.28,0,0,0-1.72,2.49,6,6,0,0,0,.47,3.08,10.07,10.07,0,0,0,5.53,5.55c-1,2.94,0,6.18,1,9.13,2.31,7.15,5,14.18,7.61,21.21,4.05.15,7.77,3.66,11,6.17,3.65,2.87,8.15,4.43,12.61,5.73a156,156,0,0,0,19.94,4.43c4.61.71,9.51,1.18,13.81-.66,3.42-1.47,6.08-4.25,8.64-7C366.05,113.26,368.59,111.07,369.78,107.87Z" transform="translate(-1.32 -6.84)"/><path class="cls-4" d="M295.19,109.62c-1.47,3.65,1,8.44,5.52,10.69s9.39,1.11,10.87-2.55-1-8.44-5.52-10.69S296.67,106,295.19,109.62Z" transform="translate(-1.32 -6.84)"/><path class="cls-10" d="M297,112.62a4.17,4.17,0,0,1-.13-1.53,1.45,1.45,0,0,1,.9-1.17c.74-.23,1.47.4,2,1a19.59,19.59,0,0,1,3.42,6" transform="translate(-1.32 -6.84)"/><path class="cls-4" d="M357.7,117.93c.9,3.83,5.57,5.68,10.42,4.11s8.06-5.94,7.16-9.78-5.57-5.68-10.42-4.11S356.8,114.09,357.7,117.93Z" transform="translate(-1.32 -6.84)"/><path class="cls-4" d="M291.18,82.65c0,13.32,6.16,25.51,12.32,34.29,1.67,2.35,3.32,4.45,4.87,6.27,3.36,4,17.67,19.06,23.49,19.44s21-12.88,24-16.27a112.41,112.41,0,0,0,9.88-12.78c6-8.93,11.3-19.79,12-29.93,1-15.5-15.86-29.7-33.28-30l-21.9-.41C304.91,52.9,291.18,66.88,291.18,82.65Z" transform="translate(-1.32 -6.84)"/><ellipse class="cls-11" cx="336.61" cy="97.33" rx="11.12" ry="10.82" transform="translate(231.7 425.22) rotate(-88.93)"/><path class="cls-11" d="M308.05,97.62c-.11,5.6,2.83,10.2,6.57,10.27s6.84-4.42,6.95-10S318.73,87.67,315,87.6,308.15,92,308.05,97.62Z" transform="translate(-1.32 -6.84)"/><path class="cls-6" d="M328.64,97.78a7.81,7.81,0,1,0,7.95-7.67A7.81,7.81,0,0,0,328.64,97.78Z" transform="translate(-1.32 -6.84)"/><path class="cls-6" d="M311.31,98.05c-.09,4.4,2.08,8,4.82,8.06s5.05-3.47,5.13-7.87-2.08-8-4.83-8.06S311.39,93.66,311.31,98.05Z" transform="translate(-1.32 -6.84)"/><path class="cls-10" d="M372.68,113.15c-1.17-1.52-3.55-1.61-5.24-.7a11.31,11.31,0,0,0-3.87,4.16,2.44,2.44,0,0,1,1.91,1.29,1.91,1.91,0,0,1-.52,2" transform="translate(-1.32 -6.84)"/><path class="cls-6" d="M331.37,80.64a11.66,11.66,0,0,0-1,2.4,1.06,1.06,0,0,0,1.29,1.36,27.79,27.79,0,0,1,15-.16A.72.72,0,0,0,347.3,83c-3.88-3.7-8.74-4.3-12.1-4.41A4.21,4.21,0,0,0,331.37,80.64Z" transform="translate(-1.32 -6.84)"/><path class="cls-9" d="M303.5,116.94c1.67,2.35,3.32,4.45,4.87,6.27,3.36,4,17.67,19.06,23.49,19.44s21-12.88,24-16.27c1.34-1.48,2.78-3.18,4.26-5,1.85-2.34,2.68-5.3,4.21-9.1-.43-.88.24-.24-.7-.58-2.11-.78-4.62.8-5.4,2.93a4,4,0,0,1-1.05,1.74,1.51,1.51,0,0,1-1.89.09,2.13,2.13,0,0,1-.48-1.2,23,23,0,0,1-.28-5.23c.07-1.19-.88-2.66-2.05-2.69-4.88-.09-9.06,1.57-13.19,4.15s-8.13,5.58-12.81,7a20.37,20.37,0,0,1-14.69-1.34c-1.67-.84-3.33-2-5.2-2A3.66,3.66,0,0,0,303.5,116.94Z" transform="translate(-1.32 -6.84)"/><path class="cls-6" d="M304.79,83.59a14.52,14.52,0,0,1,8.35-.62,1.32,1.32,0,0,0,1.6-1.14c.05-.45.11-.9.17-1.35a2.8,2.8,0,0,0-3.1-3.16,10.83,10.83,0,0,0-4.12,1.39,9,9,0,0,0-3.78,4A.69.69,0,0,0,304.79,83.59Z" transform="translate(-1.32 -6.84)"/><path class="cls-12" d="M328,133.53a13.76,13.76,0,0,0,12.4.84,1,1,0,0,0,.25-.08,17.53,17.53,0,0,0,8.94-9.23,17.78,17.78,0,0,0,1.22-4.19,26.67,26.67,0,0,0,0-8.55l-1.87.63-25.39,8.62-1.33.44C321.5,126.35,324.27,131.22,328,133.53Z" transform="translate(-1.32 -6.84)"/><path class="cls-11" d="M323.5,121.57l4.62,4.44A21.3,21.3,0,0,0,348.89,113Z" transform="translate(-1.32 -6.84)"/><path class="cls-13" d="M339.1,133.53a3.08,3.08,0,0,0,1.29.84,1,1,0,0,0,.25-.08,17.53,17.53,0,0,0,8.94-9.23,17.78,17.78,0,0,0,1.22-4.19c-1.42-1.27-3.72-.89-5.44,0a13.43,13.43,0,0,0-6.78,8.16C338.14,130.52,338.05,132.34,339.1,133.53Z" transform="translate(-1.32 -6.84)"/><path class="cls-9" d="M363.5,114.06,358,115.35a100.4,100.4,0,0,0,3.23-33.49,12.07,12.07,0,0,0,3.71-6.14c.54-2.12.39-4.6-1.09-6.21a6.16,6.16,0,0,0-4.68-1.73,18.48,18.48,0,0,0-5,1c-8.37,2.58-17.56,3-26.31,2.85-7-.12-14.06-.24-21.09-.44a14.69,14.69,0,0,1-4.29-.55,5,5,0,0,1-3.19-2.74,3.1,3.1,0,0,1,1.18-3.79,16.45,16.45,0,0,0-7.23,7.72c-.69-3.92.95-8,3.52-11a25,25,0,0,1,9.77-6.67c6.88-2.85,14.38-3.83,21.79-4.55,7-.68,14.17-1.14,21.14,0s13.86,4,18.7,9.18c3.12,3.32,5.26,7.42,7.26,11.51,2.32,4.76,4.53,9.74,4.84,15a3.19,3.19,0,0,1-.14,1.34l-5.47,10.88-4.77,10.13C366.8,107.66,364.66,111.22,363.5,114.06Z" transform="translate(-1.32 -6.84)"/><path class="cls-8" d="M367.55,72.46a8.38,8.38,0,0,0-4.12-11.62c-3.85-1.65-8.24-.24-12.23,1A169.05,169.05,0,0,1,316.14,69a35.1,35.1,0,0,1-9.82-.09c-2.17-.4-4.55-1.47-5.14-3.6a4.48,4.48,0,0,1,1.09-4A9.2,9.2,0,0,1,305.85,59" transform="translate(-1.32 -6.84)"/><path class="cls-8" d="M373.66,70.79c1.35-5.72,0-12.26-4.36-16.23A18.21,18.21,0,0,0,358,50.23a44.28,44.28,0,0,0-12.26,1.44,168,168,0,0,0-30.83,10.18" transform="translate(-1.32 -6.84)"/><path class="cls-8" d="M289.71,75.19a9.15,9.15,0,0,1-4.06-4,3.92,3.92,0,0,1-.48-1.59,1.88,1.88,0,0,1,.6-1.51,2.53,2.53,0,0,1,1.75-.39,8.23,8.23,0,0,1,3.54,1.09c.59-.35,1-1.17.58-1.69A5,5,0,0,0,289.92,66a4.91,4.91,0,0,1-2.48-2.52,2.81,2.81,0,0,1,.86-3.25,4.23,4.23,0,0,1,2.33-.54,38.31,38.31,0,0,1,6.42.39,1.15,1.15,0,0,0,1.1-1.35,2.55,2.55,0,0,0-1.29-1.3c-1.08-.6-2.24-1-3.32-1.63a6.34,6.34,0,0,1-2.66-2.49,3.2,3.2,0,0,1,.25-3.48c1-1.09,2.63-1.14,4.08-1a29,29,0,0,1,7.83,2" transform="translate(-1.32 -6.84)"/><path class="cls-8" d="M356.4,47.54c-13.42-1.71-26.87,1.84-40.16,4.34-2.81.53-5.85,1-8.41-.3" transform="translate(-1.32 -6.84)"/><path class="cls-8" d="M363.27,82a12,12,0,0,0,6.51,7.37,7.45,7.45,0,0,0,3.17.72,4.19,4.19,0,0,0,2.94-1.24,4.51,4.51,0,0,0,1.05-3.23,12.84,12.84,0,0,0-.74-3.4,3.56,3.56,0,0,0,3.74,1.31,3.91,3.91,0,0,0,2.75-2.87,4.53,4.53,0,0,0-1-3.91A5.32,5.32,0,0,0,378.06,75" transform="translate(-1.32 -6.84)"/><path class="cls-8" d="M364.33,79.88a30.47,30.47,0,0,1,13.38-6.27" transform="translate(-1.32 -6.84)"/><path class="cls-8" d="M375.33,94.18a8.31,8.31,0,0,1-7.15-1.32A14.52,14.52,0,0,1,363.56,87" transform="translate(-1.32 -6.84)"/><path class="cls-8" d="M371.94,100.44a12.29,12.29,0,0,1-9.41-6.76" transform="translate(-1.32 -6.84)"/><path class="cls-8" d="M369.42,105.12a9.13,9.13,0,0,1-7.06-6.24" transform="translate(-1.32 -6.84)"/><path class="cls-8" d="M366.79,107.92a6.14,6.14,0,0,1-4.92-2.42" transform="translate(-1.32 -6.84)"/><path class="cls-6" d="M321.53,89.73c-4-6.29-11.84-5.65-17-5.23-3.58.29-6.33,1.15-8.24,2.53a1.59,1.59,0,0,1-.94.32h-3.48a1.57,1.57,0,0,0-1.57,1.57v.4a1.56,1.56,0,0,0,1.45,1.56h0a1.55,1.55,0,0,1,1.44,1.67c-.34,3.54,1.3,7.22,2,8.53a16.55,16.55,0,0,0,6.29,6.8,15.45,15.45,0,0,0,7.84,2.13A13.82,13.82,0,0,0,323.1,98.49,11.78,11.78,0,0,0,321.53,89.73Zm.09,8.47a13,13,0,0,1-7.39,9.34,13.74,13.74,0,0,1-12-1,15.2,15.2,0,0,1-5.71-6.19c-.81-1.57-3.23-7-.9-10.54,1.42-2.18,4.47-3.47,9.05-3.84,1.56-.13,3.1-.23,4.58-.23,4.54,0,8.55.93,11,4.77A10.34,10.34,0,0,1,321.62,98.2Z" transform="translate(-1.32 -6.84)"/><path class="cls-6" d="M325.78,89.73c4-6.29,11.84-5.65,17-5.23,3.58.29,6.33,1.15,8.24,2.53a1.56,1.56,0,0,0,.93.32h3.48A1.57,1.57,0,0,1,357,88.92v.4a1.56,1.56,0,0,1-1.45,1.56h0a1.57,1.57,0,0,0-1.45,1.67c.34,3.54-1.3,7.22-2,8.53a16.55,16.55,0,0,1-6.29,6.8A15.48,15.48,0,0,1,338,110a13.82,13.82,0,0,1-13.8-11.52A11.78,11.78,0,0,1,325.78,89.73Zm-.09,8.47a12.91,12.91,0,0,0,7.39,9.34,13.74,13.74,0,0,0,12-1,15.2,15.2,0,0,0,5.71-6.19c.8-1.57,3.23-7,.9-10.54-1.43-2.18-4.47-3.47-9.05-3.84-1.56-.13-3.1-.23-4.59-.23-4.54,0-8.54.93-11,4.77A10.34,10.34,0,0,0,325.69,98.2Z" transform="translate(-1.32 -6.84)"/><path class="cls-10" d="M323.23,98.62a26.6,26.6,0,0,0-7.94,9.34c-.72,1.42-1.32,3.14-.6,4.57s2.56,2,4.18,2.29a9.82,9.82,0,0,0,5.56-.1c1.74-.72,3.05-2.79,2.29-4.51" transform="translate(-1.32 -6.84)"/><path class="cls-6" d="M324.38,97a1,1,0,0,0-.76-.48,1,1,0,0,0-.76.46l-.95-1a2.27,2.27,0,0,1,1.73-1,2.1,2.1,0,0,1,1.7,1.06Z" transform="translate(-1.32 -6.84)"/><path class="cls-4" d="M345.65,236.31a14.76,14.76,0,0,1-3.11-1.36c-.45-.9-4.25-8.59-7.3-11.37s-5.69-4.26-9.8-4.69c-.91-.09-1.95-.16-2.18.54-.43,1.06,1.34,1.94,2.35,2.1a12.46,12.46,0,0,1,7,3.57c.39.4-.67,1.72-1.13,1.39-4.13-3-5.64-2.76-8.69-3.46a4,4,0,0,0-1.72-.13,1.48,1.48,0,0,0-1.2,1.11c-.13.76,1.06,1.07,1.82,1.2a21.12,21.12,0,0,1,8.4,3.43c.25.16,0,.63-.14.86a.68.68,0,0,1-.81.16,19.38,19.38,0,0,0-3.88-2.22,35.54,35.54,0,0,0-4.79-1.43,1.08,1.08,0,0,0-.61,2,4.14,4.14,0,0,0,1.28.49,23.91,23.91,0,0,1,7.3,3.33.79.79,0,0,1-.69.86,2.22,2.22,0,0,1-1.14-.28l-4.84-2.24c-.91-.42-2-.84-2.88-.36a1.07,1.07,0,0,0-.43,1.19,1.72,1.72,0,0,0,.93.67c1.89.77,3.9,1.24,5.73,2.15a7.31,7.31,0,0,1,4.05,4.36c.5,1.88,2.12,3.25,3.72,4.36a5.93,5.93,0,0,0,5.53.89l4.21,1.85Z" transform="translate(-1.32 -6.84)"/><path class="cls-3" d="M342.75,234.52c6.67-1,13.43-2.09,19.59-4.85s11.73-7.48,14-13.84c2.45-6.84.74-14.55-2.44-21.09-5.05-10.35-14-20.59-24.67-25a10.52,10.52,0,0,1-3.18-17.45c2.89-2.69,7.15-3.55,11.06-3A28.52,28.52,0,0,1,368,153.81c12.1,7.58,21.67,19.5,25.28,33.31s.85,29.41-8.24,40.42a48.07,48.07,0,0,1-19.74,13.87,70.58,70.58,0,0,1-23.87,4.42Z" transform="translate(-1.32 -6.84)"/><path class="cls-14" d="M134,156.22c-.64,16.19,15.21,27.53,29.14,20.68a97.57,97.57,0,0,0,40.66-38.57C218.3,113.15,222.47,82.22,218.2,53a4.47,4.47,0,0,0-4.78-3.89h0a12.17,12.17,0,0,0-10.55,9.06C195,87.76,175.47,113.75,150,128.32c-9.55,5.46-15.54,16-16,27.4Z" transform="translate(-1.32 -6.84)"/><path class="cls-14" d="M202.23,57.64a27.33,27.33,0,0,0,6.64,4.16,11.79,11.79,0,0,0,7.69.63c3-.88,5.3-3.2,7.25-5.62,4.46-5.58,6.94-9,8.48-16,.44-2,1.22-5.07-.36-5.88a2.13,2.13,0,0,0-2.14.84A7.08,7.08,0,0,0,229,38.1c-.57,2.62-.65,2-1.62,4.53a4.27,4.27,0,0,1-1.76,2.43c-.84-.37-.67-1.46-.36-2.32a61.57,61.57,0,0,0,3.45-12.26,5,5,0,0,0-.17-3.25,2.09,2.09,0,0,0-3.08-.34c-1.21,1.46-1.47,4.19-2,6.45-.85,3.44-1.38,3.63-2.93,6.8-.34.34-1.31.34-1.39-.42,1.95-5.39,3.16-7.34,5.11-12.73a6.67,6.67,0,0,0,.56-4c-.38-1.31-2-2.33-3.14-1.58-.44.29-.58.94-.78,1.43-2.53,6.06-3.15,9.32-5.84,15.31a.92.92,0,0,1-.64-.17c-.66-.23,2.82-6.29,3.92-11a4,4,0,0,0,.16-2.49c-.35-.82-2.15-.93-2.67-.21-1.51,2.06-3.79,8.31-5.23,12.31-.95,2.63-1.54,5.42-5,8.82-.68.47-1.79-.42-2-1,1.2-2.77,1.56-3.71,1.34-5.92a5.77,5.77,0,0,0-.73-2.21A2.52,2.52,0,0,0,202.43,35a1.65,1.65,0,0,0-1.79,1.09,6,6,0,0,1,.55,4.3c-.39,1.52-2.06,5.08-2.43,6.6A9.87,9.87,0,0,0,202.23,57.64Z" transform="translate(-1.32 -6.84)"/><path class="cls-15" d="M223.6,51.13a39.18,39.18,0,0,0-15.84,5.39" transform="translate(-1.32 -6.84)"/><path class="cls-15" d="M215.58,51.24a13.91,13.91,0,0,0-2.48-6" transform="translate(-1.32 -6.84)"/><path class="cls-15" d="M209,53.48a9.1,9.1,0,0,0,.88-8.14" transform="translate(-1.32 -6.84)"/><path class="cls-16" d="M109.9,257.72c4.11,4.11,4.17,8.46,5.11,14.2s1.38,10.42-1.2,15.63c-13.4,8-35.93,12.82-48.75,3.94-2.34-10,2.79-21,10.86-27.31S102.67,250.49,109.9,257.72Z" transform="translate(-1.32 -6.84)"/><path class="cls-16" d="M110.2,269c13,18.44,17.26,40.26,18.4,62.77H116.19c-5.74-12.9-11.78-27.38-21.87-37.27C98.65,284.32,104.69,278.65,110.2,269Z" transform="translate(-1.32 -6.84)"/><path class="cls-16" d="M58.75,328.69H45.6C48.56,318.61,63,282.43,78,265.9l11.79,28.87C80,304.87,68.46,318.59,58.75,328.69Z" transform="translate(-1.32 -6.84)"/><path class="cls-3" d="M120.31,286.59l-57.74-6c4.81-8.18,13.91-19.69,16.36-24.54,2.72-16,17.69-7.12,26.7-5.78,3.7.55,12.55,1.41,15.16,4.09C117.18,263.25,118.38,278.65,120.31,286.59Z" transform="translate(-1.32 -6.84)"/><path class="cls-3" d="M71.29,187.72c11.94,12.41,29.49,18.7,46.69,18.37,14.18-.29,29.05-5.43,37.4-16.89,6.06-8.28,8.09-19.14,6.64-29.3a54.71,54.71,0,0,0-5.78-17.63,17.53,17.53,0,0,0-17.13-9.34l-13.76,1.23-40.08,3.55L58.41,140.1C53.76,156.67,59.38,175.32,71.29,187.72Z" transform="translate(-1.32 -6.84)"/><path class="cls-3" d="M155.91,160.28a152.22,152.22,0,0,1-53.34,112.38l-26.41.58c7-30.79,2.91-62.74-9.42-91.81Z" transform="translate(-1.32 -6.84)"/><path class="cls-14" d="M85.27,137.71a25.82,25.82,0,0,0,8.15,13.34,41.47,41.47,0,0,0,15.24,8.21,28.27,28.27,0,0,0,12.44,1.55c4.16-.58,8.27-2.79,10.31-6.49s1.75-8.23.07-12a25.09,25.09,0,0,0-6.13-8.13Z" transform="translate(-1.32 -6.84)"/><path class="cls-14" d="M116.94,134.9c.12-1-7.94-37.77-7.94-37.77L95.29,99.65s-4.22,35.25-3.61,37.42C91.32,145.49,119.83,149.09,116.94,134.9Z" transform="translate(-1.32 -6.84)"/><path class="cls-17" d="M126.44,100.38l.24-30.92a24.47,24.47,0,0,0,5.74-6.57,4.64,4.64,0,0,0,.64-1.86,2.22,2.22,0,0,0-.6-1.81,2.33,2.33,0,0,0-1.75-.55,6.61,6.61,0,0,0-1.84.45c3-3.09,4.88-7.47,6.17-11.58a5.4,5.4,0,0,0,.24-3.38c-.64-1.83-3-2.6-4.85-2.16a12.08,12.08,0,0,0-4.91,3,3.26,3.26,0,0,0,.77-2.89,3.5,3.5,0,0,0-1.75-2.56,6.18,6.18,0,0,0-3.88-.38A26.7,26.7,0,0,0,108.9,44c1.25-.4,1.77-2.44,1.24-3.65A3.89,3.89,0,0,0,107,38.24a10.12,10.12,0,0,0-3.89.52A54.41,54.41,0,0,0,74.58,59.14a3.31,3.31,0,0,0,.72,4.58,7.07,7.07,0,0,0-3.61,4A7.61,7.61,0,0,0,72,73.3l5.51,26.47c.5,4.14,3.92,7.2,7.62,9.13s7.91,2.55,12.06,2.95c5.56.53,11.28.69,16.62-.95S124.56,105.63,126.44,100.38Z" transform="translate(-1.32 -6.84)"/><path class="cls-14" d="M133,96.6a5.9,5.9,0,0,0,.18-3.8,4.25,4.25,0,0,0-2.54-2.75c-1.77-.63-3.75.18-5.19,1.38a8.35,8.35,0,0,0-2.87,4.51C120.82,103.87,131,101.85,133,96.6Z" transform="translate(-1.32 -6.84)"/><path class="cls-14" d="M103,125.41l3.6-.32a22,22,0,0,0,19.88-23.73L124.62,80l-1.07-12.2A22,22,0,0,0,99.82,47.92l-3.6.31A22,22,0,0,0,76.34,72l3,33.55a21.57,21.57,0,0,0,2.89,9.06A22,22,0,0,0,103,125.41Z" transform="translate(-1.32 -6.84)"/><path class="cls-14" d="M73.08,95.46a6.32,6.32,0,0,0-5.58,2,5.69,5.69,0,0,0-.55,5.43,8.08,8.08,0,0,0,7.41,5.08c2.89,0,7.77-2.69,7.55-6.09C81.68,98.26,76.05,95.72,73.08,95.46Z" transform="translate(-1.32 -6.84)"/><ellipse class="cls-11" cx="93.84" cy="79.66" rx="8.54" ry="9.06"/><path class="cls-18" d="M90,86.56A6.23,6.23,0,1,0,96.17,80,6.42,6.42,0,0,0,90,86.56Z" transform="translate(-1.32 -6.84)"/><ellipse class="cls-11" cx="111.05" cy="77.53" rx="5.77" ry="8.54"/><path class="cls-17" d="M107.28,74.64a12,12,0,0,1,10.91.6,6.45,6.45,0,0,0-3.75-4.9,6.31,6.31,0,0,0-6.13.64C106.71,72.17,107.38,74.59,107.28,74.64Z" transform="translate(-1.32 -6.84)"/><path class="cls-17" d="M100.26,76a13.27,13.27,0,0,0-12.13.66,7.13,7.13,0,0,1,4.17-5.44,7,7,0,0,1,6.82.71C100.89,73.2,100.15,75.9,100.26,76Z" transform="translate(-1.32 -6.84)"/><path class="cls-18" d="M107,86c.51,3.36,2.92,5.78,5.38,5.41s4-3.4,3.53-6.77-2.92-5.78-5.38-5.41S106.49,82.67,107,86Z" transform="translate(-1.32 -6.84)"/><path class="cls-15" d="M107.25,91.23a4.37,4.37,0,0,0,1.09,2.29,7.49,7.49,0,0,1,2.5,0,2.54,2.54,0,0,1,1.9,1.46,2.34,2.34,0,0,1-.33,2.06,4.32,4.32,0,0,1-1.66,1.36,7.66,7.66,0,0,1-3.48.87,4.12,4.12,0,0,1-2-.38,2.18,2.18,0,0,1-1.2-1.54,1.49,1.49,0,0,1,.91-1.62" transform="translate(-1.32 -6.84)"/><path class="cls-15" d="M76.92,105.56a1.53,1.53,0,0,1-1.72-.46,1.92,1.92,0,0,1-.3-1.8,2.58,2.58,0,0,1,1.22-1.4,4.57,4.57,0,0,0-2.35-3.05,4.86,4.86,0,0,0-4,0c-.68.3-1.35.9-1.25,1.63" transform="translate(-1.32 -6.84)"/><path class="cls-15" d="M127.43,99a2.15,2.15,0,0,0-.33-4.2,4,4,0,0,1,1.4-2.44,2.15,2.15,0,0,1,2.67.22,3.38,3.38,0,0,1,.58,2.28" transform="translate(-1.32 -6.84)"/><path class="cls-12" d="M86.86,101.1c0,.31.11.42.12.73A37.94,37.94,0,0,0,88.72,112c.13.33.25.66.4,1a11.18,11.18,0,0,0,2.39,3.54,12.85,12.85,0,0,0,4.41,2.57,21.69,21.69,0,0,0,3.2.91,16,16,0,0,0,6.42.06,13.72,13.72,0,0,0,7.59-4.49,14.47,14.47,0,0,0,3.26-8.49l-1.35-.27L89,101.52Z" transform="translate(-1.32 -6.84)"/><path class="cls-11" d="M89,101.52a12.7,12.7,0,0,0,4.25,5,22.17,22.17,0,0,0,7.39,3.12c4.31,1.08,8.71.82,13.14.82l1.29-3.65Z" transform="translate(-1.32 -6.84)"/><path class="cls-19" d="M89.12,112.94a11.18,11.18,0,0,0,2.39,3.54,12.85,12.85,0,0,0,4.41,2.57,21.69,21.69,0,0,0,3.2.91l.2-.07a3.67,3.67,0,0,0,1.44-1,3.44,3.44,0,0,0,.64-1.86,6.92,6.92,0,0,0-9.51-7A4.36,4.36,0,0,0,89.12,112.94Z" transform="translate(-1.32 -6.84)"/><path class="cls-17" d="M78.1,97.08l1.36,7.26a.72.72,0,0,0,.41.52L82.44,106a.7.7,0,0,0,1-.76,187.25,187.25,0,0,1-1.69-32.55,15.56,15.56,0,0,1,1.18-6.57c1.62-3.22,5.24-5,8.78-5.69,4.29-.85,9.14-.3,12.4,2.55a.7.7,0,0,0,1,0,14.82,14.82,0,0,1,8.48-3.74A14.32,14.32,0,0,1,123,61.59h0a9.27,9.27,0,0,0-.9-6.65C116,44,101.54,41.49,91,46.7c-8.51,4.2-14.41,12.82-16.36,22.1a46.55,46.55,0,0,0,3.41,28.14A.58.58,0,0,1,78.1,97.08Z" transform="translate(-1.32 -6.84)"/><path class="cls-15" d="M113.1,123.26a23.47,23.47,0,0,1-15.89,1.79" transform="translate(-1.32 -6.84)"/><path class="cls-20" d="M124.89,60a30.3,30.3,0,0,0,8-9.56,7,7,0,0,0,.93-2.69,2.75,2.75,0,0,0-1.09-2.5c-1.25-.8-2.89-.07-4.15.71A54.43,54.43,0,0,0,120,52.51a26,26,0,0,0,3-7.43,2.86,2.86,0,0,0,0-1.76c-.47-1.07-1.92-1.21-3.08-1.07-5.13.63-9.68,3.51-14,6.31a32,32,0,0,0,2.09-3.76,2.56,2.56,0,0,0,.36-1.46c-.14-.86-1.09-1.34-2-1.47-2.09-.31-4.15.64-6,1.59-9.12,4.59-18.07,10-24.7,17.76" transform="translate(-1.32 -6.84)"/><path class="cls-20" d="M79.08,68a8.4,8.4,0,0,0-2.29-2,3,3,0,0,0-2.9,0,3.06,3.06,0,0,0-1.28,2.59,9.67,9.67,0,0,0,.59,2.94,107.15,107.15,0,0,1,4.39,23.2" transform="translate(-1.32 -6.84)"/><path class="cls-14" d="M83.74,158.48C72.89,118.16,19.84,153.26,8.52,177c-22.34,34.74,10.78,89.32,52.05,67.32,7.87-4.27,4.7-16.83-4.18-17-11.55-.45-23.8.63-27.53-12.12C23.53,170.84,87,201.35,83.74,158.48Z" transform="translate(-1.32 -6.84)"/><path class="cls-14" d="M64.37,245a27.17,27.17,0,0,1-7.71,1.41,11.82,11.82,0,0,1-7.37-2.26c-2.45-1.92-3.75-4.93-4.66-7.9-2.08-6.84-3.1-11-2-18,.32-2,.74-5.16,2.51-5.33a2.14,2.14,0,0,1,1.68,1.56,7.16,7.16,0,0,1-.15,2.48c-.44,2.64-.14,2.13-.16,4.81a4.25,4.25,0,0,0,.73,2.91c.91,0,1.16-1.11,1.19-2A61.18,61.18,0,0,1,49.81,210a5,5,0,0,1,1.36-3,2.09,2.09,0,0,1,3,.82c.58,1.81-.18,4.44-.5,6.75-.48,3.51-.06,3.88.2,7.4.19.44,1.09.8,1.45.12.19-5.72-.21-8,0-13.71a6.61,6.61,0,0,1,.95-3.91c.83-1.08,2.71-1.42,3.5-.31a3.06,3.06,0,0,1,.2,1.63c.11,6.56-.53,9.82-.25,16.38a.94.94,0,0,0,.66.08c.7,0-.3-6.89.45-11.72a3.93,3.93,0,0,1,.77-2.37c.63-.64,2.34-.07,2.57.79.63,2.47.43,9.12.3,13.37-.09,2.8-.58,5.61,1.38,10.05.47.69,1.82.27,2.18-.17-.09-3-.08-4,1-6a5.72,5.72,0,0,1,1.5-1.78,2.49,2.49,0,0,1,2.13-.57,1.65,1.65,0,0,1,1.27,1.67,6,6,0,0,0-2.11,3.79c-.2,1.56,0,5.48-.18,7A9.85,9.85,0,0,1,64.37,245Z" transform="translate(-1.32 -6.84)"/><path class="cls-15" d="M46.93,231a39.23,39.23,0,0,1,12.72,10.86" transform="translate(-1.32 -6.84)"/><path class="cls-15" d="M54.34,234.1a13.86,13.86,0,0,1,4.53-4.67" transform="translate(-1.32 -6.84)"/><path class="cls-15" d="M59.66,238.63a9.07,9.07,0,0,1,2.2-7.89" transform="translate(-1.32 -6.84)"/><path class="cls-15" d="M42.46,227.19a48.26,48.26,0,0,0,.67,9.91,16,16,0,0,0,4.56,8.65" transform="translate(-1.32 -6.84)"/><path class="cls-6" d="M194.82,131.44c.26-16.19,3.24-34.56,13.68-48.78,9.58-13,26.39-19.26,42.53-18,6.48.49,13,2.79,17.51,7.52,4.69,5,6.54,12,7.24,18.74a71,71,0,0,1-13.71,49.32c-6.05,8-13.73,14.68-20.58,22.05s-13,15.86-15.05,25.72c-1.06,5.19-.65,11.23,3.21,14.86,3.67,3.45,9.55,3.66,14.17,1.65,1.16-.51,3.18-2.45,4.93-3.92a18.65,18.65,0,0,0,3-5.89c1.52-5,.59-10.62-.21-15.8,2.75,5.95,4.29,12.71,2.88,19.11a21.26,21.26,0,0,1-19.16,16.26c-13.1,1-23.7-8.65-29.83-19.27-1-1.78-2-3.61-2.84-5.48C194.26,171.53,194.46,153.4,194.82,131.44Z" transform="translate(-1.32 -6.84)"/><path class="cls-21" d="M169.57,146.14a130.2,130.2,0,0,0,19.77,21.92,8.23,8.23,0,0,0,12-1.12,22.46,22.46,0,0,0,2.56-4.24,6.54,6.54,0,0,0-3.3-8.59c-7.19-3.39-13.06-9.44-18-16-.85-1.12-1.68-2.27-2.48-3.41a158.07,158.07,0,0,1-27.45-74.17c1.35-2.27.12-6.51-1.76-8.32a6.08,6.08,0,0,0-7.27-.78A143.84,143.84,0,0,0,169.57,146.14Z" transform="translate(-1.32 -6.84)"/><path class="cls-22" d="M169.57,146.14a130.2,130.2,0,0,0,19.77,21.92,8.23,8.23,0,0,0,12-1.12,22.46,22.46,0,0,0,2.56-4.24,6.54,6.54,0,0,0-3.3-8.59c-7.19-3.39-13.06-9.44-18-16Z" transform="translate(-1.32 -6.84)"/><path class="cls-21" d="M137.79,48c-.18-3.11-2-12,1.73-12.15,1.66,2.54-.55,9.21,1.95,10.69.42-.06.12-1.92-.36-8.26.14-.38-.15-7.6,2-8.41a1.11,1.11,0,0,1,.88.17l.14.18c1.38,1.93-1.81,17.43,1.46,15.09-.71-8-.58-8.94,1-17.12,6.28-5.59-.65,18.26,2.67,16,.35-5.16-.15-9.3,2.73-13,3.08-.8-.27,10.25.16,13.93-.13,2.11-.44,8.63,2.76,7,2.57-2.26,5.37-9.11,8.3-6.82,1,2.22-5.45,6.41-5.56,10-.61,3.26-.33,6.12-2.51,8.62C144,72.21,138.51,61.62,137.79,48Z" transform="translate(-1.32 -6.84)"/><path class="cls-23" d="M147.66,62.46a7.15,7.15,0,0,0-.89-6,31.27,31.27,0,0,0-3.41-3.6,5.41,5.41,0,0,1-1.72-4.47" transform="translate(-1.32 -6.84)"/><path class="cls-23" d="M150,46.91a11,11,0,0,0-5.13.9" transform="translate(-1.32 -6.84)"/><path class="cls-24" d="M225.27,242.22a29.61,29.61,0,0,0-30.48,25.46l26.12,64.12h18.84C241.42,300.23,237.57,271.35,225.27,242.22Z" transform="translate(-1.32 -6.84)"/><path class="cls-24" d="M183.74,235.88c-12.4,24.29-11.8,66-13.22,94.08l19.56.16,15-66.12C197,254.87,191.29,244.7,183.74,235.88Z" transform="translate(-1.32 -6.84)"/><path class="cls-21" d="M225.5,179.48a152.49,152.49,0,0,0,5,24.15A85.07,85.07,0,0,0,244,230.39a18.61,18.61,0,0,0,5.36,5c10.15,6,18-.35,22.66-8.64,7.65-13.61,10.06-43.86,6.44-46.47-2-1.42-2.8-1.12-4.77.69-4.67,4.31-3.71,19.57-11.2,34.46,0,0,0,0,0,.05-1.51,2.91-5.63,3.2-7.86.82-4.46-4.76-6.87-10.79-8.27-17.11-.18-.85-.36-1.72-.52-2.59-1.47-8.32-2.43-17.35-4.54-25.55-.85-3.28-2.29-6.85-5.87-7.77a7.23,7.23,0,0,0-5.56,1.12C224.26,167.86,224.77,174.09,225.5,179.48Z" transform="translate(-1.32 -6.84)"/><path class="cls-21" d="M270.63,187.23a1.76,1.76,0,0,1,1.89,1.13,9.9,9.9,0,0,0,7.92-1.79,16.41,16.41,0,0,0,5.08-6.53,47.6,47.6,0,0,0,2.61-7.94A19.49,19.49,0,0,0,294.67,158c0-.6-.1-1.36-.68-1.5s-1.13.65-1.34,1.31a28.26,28.26,0,0,1-2.22,5.57c-1,1.74-3.41,5.24-4.07,4.31a20.51,20.51,0,0,0,.35-18.62c-.82-.59-1.9,1.25-2,2.36a10,10,0,0,0,.64,3.26,13.61,13.61,0,0,1-2,10.92c-.74-.23-.55-.84-.46-1.58.63-5.1,1.16-12.11,0-17.87-1-.66-2.49,1-2.61,2.21a32.69,32.69,0,0,0-.17,4.84c.18,3.8,0,11.1-1.35,10.42a46.11,46.11,0,0,0-1-17.4c-1.24-.11-2.43,1.65-2.27,3a44.87,44.87,0,0,1-.25,15,14.09,14.09,0,0,0-2.09,5.26,6.45,6.45,0,0,1-1.8,3.21c-.2.13-.7-.2-.87-.57a10.05,10.05,0,0,1-.06-4.5,8.64,8.64,0,0,0-.11-2.68,4.24,4.24,0,0,0-1.09-2.34,2.55,2.55,0,0,0-2.39-.73.76.76,0,0,0-.43.85,3,3,0,0,0,.44.93,4.66,4.66,0,0,1,.57,2.34,51,51,0,0,1-.88,8.73C265.59,179.36,267.63,183.63,270.63,187.23Z" transform="translate(-1.32 -6.84)"/><path class="cls-23" d="M284.13,170.69c-1.34,3.38-4.88,5.33-6.92,8.34a10.9,10.9,0,0,0-1.84,6.9" transform="translate(-1.32 -6.84)"/><path class="cls-23" d="M277.12,177a7.9,7.9,0,0,0-1-7.29" transform="translate(-1.32 -6.84)"/><path class="cls-22" d="M225.22,179.37a155.42,155.42,0,0,0,5.11,24.81l16.24-4.61c-.19-.88-.37-1.77-.54-2.66-1.51-8.55-2.49-17.82-4.66-26.25-.87-3.36-2.35-7-6-8a7.39,7.39,0,0,0-5.71,1.16C224,167.44,224.47,173.84,225.22,179.37Z" transform="translate(-1.32 -6.84)"/><path class="cls-22" d="M190.56,191.82c9.73,5,22.82,7.79,32.68,2.12,7.84-4.49,13.88-13.14,15.74-22.63a7.68,7.68,0,0,0-5.61-9h0l-28.63-7.17-.63-.16a10.18,10.18,0,0,0-7.74,1.14c-5,3-10.72,7.54-13.4,11.94C179.6,173.64,186.79,189.89,190.56,191.82Z" transform="translate(-1.32 -6.84)"/><path class="cls-22" d="M201.38,231.5c6.84-18,14.66-28.41,28-49.6l-44-.68,7,49.19Z" transform="translate(-1.32 -6.84)"/><path class="cls-22" d="M191.85,217.27c-8,13.35-13.92,24.3-17.77,44.7,15.87,9.1,42.76,8,60,2-2.17-16.37-12.76-35.72-25.73-45.95C202.57,213.44,199.09,215.57,191.85,217.27Z" transform="translate(-1.32 -6.84)"/><path class="cls-21" d="M197.42,168.94a38.49,38.49,0,0,0,9.18,3.74,29.09,29.09,0,0,0,13.94-.68c4.69-1.57,10.76-5.56,13.82-9.41L204.11,155a66.77,66.77,0,0,0-5.44,4.75C196.29,162.37,192.66,165.54,197.42,168.94Z" transform="translate(-1.32 -6.84)"/><path class="cls-25" d="M199.1,155a44.09,44.09,0,0,0-13.28,9.29" transform="translate(-1.32 -6.84)"/><path class="cls-25" d="M196.24,174.59a13.79,13.79,0,0,0,2.48,13.78" transform="translate(-1.32 -6.84)"/><path class="cls-25" d="M238.48,166.56a33,33,0,0,0-11.06,23.12" transform="translate(-1.32 -6.84)"/><polygon class="cls-21" points="209.57 150.18 225.77 110.89 233.62 114.76 221.26 160.59 205.53 155.15 209.57 150.18"/><ellipse class="cls-21" cx="234.3" cy="107.01" rx="38.94" ry="26.71" transform="translate(45.5 276.8) rotate(-67.84)"/><line class="cls-26" x1="244.38" y1="100.59" x2="250.3" y2="98.13"/><line class="cls-26" x1="243.4" y1="97.9" x2="247.11" y2="94.9"/><line class="cls-26" x1="244.49" y1="103.42" x2="250.21" y2="103.16"/><path class="cls-11" d="M226.19,112.06c1,3.78,6.54,5.59,12.33,4s9.67-5.88,8.66-9.66-6.54-5.59-12.33-4S225.17,108.27,226.19,112.06Z" transform="translate(-1.32 -6.84)"/><path class="cls-7" d="M229.36,108.77a6.42,6.42,0,1,0,7.38-5.27A6.41,6.41,0,0,0,229.36,108.77Z" transform="translate(-1.32 -6.84)"/><line class="cls-26" x1="214.59" y1="91.4" x2="213.5" y2="87.2"/><line class="cls-26" x1="216.78" y1="91.65" x2="217.12" y2="87.17"/><line class="cls-26" x1="213.09" y1="93.85" x2="211.42" y2="91.45"/><path class="cls-11" d="M213,105.25c.27,4.41,2.78,7.85,5.61,7.67s4.9-3.88,4.63-8.29-2.78-7.85-5.6-7.67S212.73,100.84,213,105.25Z" transform="translate(-1.32 -6.84)"/><path class="cls-7" d="M215,105.94c-.55,3.29.8,6.25,3,6.61s4.44-2,5-5.29-.8-6.25-3-6.62S215.57,102.65,215,105.94Z" transform="translate(-1.32 -6.84)"/><path class="cls-27" d="M222.57,111.26a8.5,8.5,0,0,1-7.79,4.15,12.17,12.17,0,0,0,5,2.74,2.94,2.94,0,0,0,2.58-.36" transform="translate(-1.32 -6.84)"/><path class="cls-6" d="M222.83,127c.21.71-.2,7.51,1.4,9.77a7.44,7.44,0,0,0,7.16,3.09,3.88,3.88,0,0,0,.61-.15,9.2,9.2,0,0,0,5.76-5.8c.13-.33.23-.68.33-1a31.7,31.7,0,0,0,.6-8.09l-.3,0,0,0-14.6,2Z" transform="translate(-1.32 -6.84)"/><path class="cls-11" d="M223.73,127l1.75,2.45a15,15,0,0,0,7.42-.82,14.45,14.45,0,0,0,5.43-3.64Z" transform="translate(-1.32 -6.84)"/><path class="cls-28" d="M229.14,136.73a2.48,2.48,0,0,0,.66,2,3,3,0,0,0,2.09.69,9.2,9.2,0,0,0,5.77-5.79c.12-.33.23-.68.33-1a2.41,2.41,0,0,0-.26-.39,3.22,3.22,0,0,0-3.14-.68,7.68,7.68,0,0,0-4.66,3.2A4.41,4.41,0,0,0,229.14,136.73Z" transform="translate(-1.32 -6.84)"/><path class="cls-21" d="M256.79,129.53a6.37,6.37,0,0,0,5.3-3.39,2.89,2.89,0,0,0,.27-1.82,2.75,2.75,0,0,0-1.85-1.81,6.87,6.87,0,0,0-3.84,0,10.62,10.62,0,0,0-4,1.78c-.78.61-3.11,2.94-1.85,3.82A9.92,9.92,0,0,0,256.79,129.53Z" transform="translate(-1.32 -6.84)"/><path class="cls-27" d="M260.3,125.33a2.21,2.21,0,0,0-2-1.3c-.85,0-1.26.54-1.92,1.09a4.51,4.51,0,0,1,.58.93,1.64,1.64,0,0,1,.1,1.07,1.62,1.62,0,0,1-1.47,1,4.76,4.76,0,0,1-1.85-.36" transform="translate(-1.32 -6.84)"/><path class="cls-27" d="M226.21,144.42c-.83.43-4.72-.33-6.26-1.39" transform="translate(-1.32 -6.84)"/><path class="cls-17" d="M230.45,97.53a12.87,12.87,0,0,1,18.87,1.07A37.41,37.41,0,0,0,230.45,97.53Z" transform="translate(-1.32 -6.84)"/><path class="cls-17" d="M216.22,90.8l-.15-.22a6.1,6.1,0,0,1,8.55,5A17.81,17.81,0,0,0,216.22,90.8Z" transform="translate(-1.32 -6.84)"/><path class="cls-6" d="M256.62,71.39c-3.22-4.3-9-6.09-14.37-5.51S232,69.07,227.64,72.2a63,63,0,0,0-24.93,65.64,129.5,129.5,0,0,1,9.46-41.73c2.07-5,4.44-10.38,8.55-14.12a22.79,22.79,0,0,1,13.34-5.86,13.5,13.5,0,0,1,4.86.4c1,.28,3.33,1.07,3.42,2.31,2.39-1.36,4.48-3.19,7-4.38a32.09,32.09,0,0,1,3.92-1.52c.45-.14,3.6-1.29,3.89-1C256.9,71.64,256.88,71.75,256.62,71.39Z" transform="translate(-1.32 -6.84)"/><path class="cls-6" d="M246.84,74.2l-3.6,5.13c4-.8,7.93,2,10.06,5.44s2.61,7.65,2.51,11.69a47.1,47.1,0,0,1-10.9,28.84c-2.87,3.42-3.77,8.26-3.61,12.73a21.6,21.6,0,0,0,4.52,12.38,30.21,30.21,0,0,0,7.58-7.55A75.82,75.82,0,0,0,268,96.79c-.08-3.84.07-8.16-.58-12a20.75,20.75,0,0,0-4.64-10.37,9.34,9.34,0,0,0-10.62-2.92A30,30,0,0,0,246.84,74.2Z" transform="translate(-1.32 -6.84)"/><polygon class="cls-6" points="485.9 238.8 481.93 267.14 506.59 269.46 507.87 241.83 485.9 238.8"/><polygon class="cls-6" points="485.33 248.63 471.73 324.77 482.69 324.96 498.56 269.22 485.33 248.63"/><polygon class="cls-6" points="507.82 250.33 500.83 260.72 495.54 268.85 515 323.64 524.26 323.45 507.82 250.33"/><path class="cls-12" d="M605.87,135.45l-8.73,1.6a79.31,79.31,0,0,1,1.42,28.84c-1,7.13-3.15,14.52-8.43,19.42a23,23,0,0,1-19.45,5.16,29.91,29.91,0,0,1-17.28-10.92c-3.18-4-5.62-8.74-9.75-11.72a10,10,0,0,0-5.12-2,5.78,5.78,0,0,0-4.93,2.12,9.31,9.31,0,0,0-2.24,6.13,18,18,0,0,0,2.06,6.45c6.08,12.38,17.48,22.29,30.92,25.5a35.59,35.59,0,0,0,5.53.89c11.93,1.12,24.36-3.06,32.44-11.86,10-10.89,12.38-27.2,9.49-41.72A81.61,81.61,0,0,0,605.87,135.45Z" transform="translate(-1.32 -6.84)"/><path class="cls-12" d="M599.3,148.47a9.32,9.32,0,0,0,5,1.32c3.09-.19,4.77-1.89,7.32-4.37a59.86,59.86,0,0,0,6.66-9.56c3.54-4.39,5.52-5.63,8.32-11.71a1.28,1.28,0,0,0-.28-1.46,1.08,1.08,0,0,0-1.36.2,6.38,6.38,0,0,0-1,1.1,33.37,33.37,0,0,1-4.75,5.92c-.42.42-1,1-1.56.88s-.29-1.46-.07-2c.71-1.73,4.86-8,7.09-12.5.4-.82,2.18-4.93,1.82-5.78s-2.88.61-3.8,2.14c-3.64,6-2.86,4.87-5.34,9.19a12.73,12.73,0,0,1-1.82,2.13,1.21,1.21,0,0,1-1.38.1c-1.22-.9,3.37-9.28,5.42-14.94a3.55,3.55,0,0,0,.26-2.3,1.37,1.37,0,0,0-2.25-.54c-2.84,2.55-5.1,9.31-7.41,14.91a2.36,2.36,0,0,1-.8,1.19c-.41.26-1.24.17-1.21-.31A80.51,80.51,0,0,1,610,108.2a5.34,5.34,0,0,0,.12-2.31,1,1,0,0,0-1.36-.6,4.7,4.7,0,0,0-1.12,1.95c-2.12,5.52-2.3,7.44-3.57,12.84a9.34,9.34,0,0,1-.93,2.38,43.86,43.86,0,0,0-1.82,4.45c-.59,1.38-2.19,3.25-2.7,2.51-1.16-1.19,1-5.06.84-9.22,0-.67-.62-2.94-1.22-3.26s-1.51,0-1.58.65c-.5,4.78-1.56,9.74-2.32,14.49a28.37,28.37,0,0,0-.46,9.09A11.74,11.74,0,0,0,599.3,148.47Z" transform="translate(-1.32 -6.84)"/><path class="cls-29" d="M606.35,142.38a22.74,22.74,0,0,1,1.36-14" transform="translate(-1.32 -6.84)"/><path class="cls-30" d="M598.46,144.27a11.53,11.53,0,0,0,4.19-11.87" transform="translate(-1.32 -6.84)"/><path class="cls-31" d="M575.46,190.1,570,208a35.65,35.65,0,0,1-5.55-.89c-13.49-3.22-25-14.16-31.07-26.58a18,18,0,0,1-2.07-6.47,9.36,9.36,0,0,1,2.24-6.15,5.83,5.83,0,0,1,5-2.13,10.08,10.08,0,0,1,5.14,2c4.14,3,6.59,7.77,9.78,11.76,4.34,5.44,10.84,8.81,17.69,10.14A22.8,22.8,0,0,0,575.46,190.1Z" transform="translate(-1.32 -6.84)"/><line class="cls-32" x1="566.11" y1="199.88" x2="571.3" y2="184.48"/><path class="cls-12" d="M463.59,62.48A10.47,10.47,0,0,1,458,64c-3.46-.21-6.33-2.81-8.29-5.67s-3.32-6.13-5.5-8.83c-4-4.91-10-8-11.15-14.18a1.65,1.65,0,0,1,.31-1.63,1.19,1.19,0,0,1,1.52.23,4.16,4.16,0,0,1,.78,1.47,14.51,14.51,0,0,0,5.49,6.76,2.7,2.7,0,0,0,1.88.6c.66-.11,1.08-2.34.93-3-.31-1.36-7.7-11.75-10.19-16.81-.45-.92-1-1.95-.63-2.9s3.22.68,4.26,2.4c4.06,6.73,3.19,5.44,6,10.28a14.49,14.49,0,0,0,2,2.37,1.35,1.35,0,0,0,1.54.12c1.37-1-4.72-12.49-7-18.82a4.07,4.07,0,0,1-.3-2.58,1.54,1.54,0,0,1,2.52-.6c3.17,2.86,6.65,12.53,9.23,18.8a2.68,2.68,0,0,0,.9,1.32c.46.29,1.39.2,1.36-.35-.34-5.38-2-11.37-3.28-17.2a6.12,6.12,0,0,1-.13-2.58,1.11,1.11,0,0,1,1.52-.67A5.2,5.2,0,0,1,453,14.66a109,109,0,0,1,5.22,16.06,10.29,10.29,0,0,0,1,2.66,51.33,51.33,0,0,1,2,5c.66,1.54,2.44,3.63,3,2.81,1.29-1.33-1.13-5.67-.95-10.32,0-.75.71-3.29,1.37-3.64s1.69,0,1.76.72c.56,5.35,1.76,10.9,2.6,16.21.54,3.37,1.07,6.78.51,10.17A13.16,13.16,0,0,1,463.59,62.48Z" transform="translate(-1.32 -6.84)"/><path class="cls-33" d="M450,52.48a25.44,25.44,0,0,0,4.38-15.1" transform="translate(-1.32 -6.84)"/><path class="cls-33" d="M463.53,55.8A15.17,15.17,0,0,1,458,40.23" transform="translate(-1.32 -6.84)"/><path class="cls-31" d="M543.77,168.34s1.77,15.55,1.76,22.51c0,6.45-1,12.44-4.57,17.81a15.58,15.58,0,0,1-13.58,7.53c-12.58.27-27.41-6.74-34.31-17.26-1.1-5-2.51-32-3.22-45.1C489.52,154.62,543.77,168.34,543.77,168.34Z" transform="translate(-1.32 -6.84)"/><polygon class="cls-31" points="490.37 178.6 480.61 257.89 513.67 262.8 531.64 193.1 490.37 178.6"/><path class="cls-12" d="M506,158.55c0,.1,0,.21.07.31l20.48,22.51,1.68-17Z" transform="translate(-1.32 -6.84)"/><polygon class="cls-19" points="525.21 174.53 511.22 167.57 504.71 177.13 504.76 151.73 525.21 174.53"/><path class="cls-19" d="M528.25,164.19l0,.6-1.75,16.58,5.48-3.28,5.57,7.45Z" transform="translate(-1.32 -6.84)"/><path class="cls-32" d="M536.34,167.08a46.08,46.08,0,0,1,8.85,28.5" transform="translate(-1.32 -6.84)"/><path class="cls-12" d="M490.8,184.41c-12.56-18.93-20.65-40.56-25.86-62.67S457.32,77,455.45,54.32L466.07,54a312.06,312.06,0,0,0,35.36,103.54c3.3,6,3.77,13.52,2.26,20.15-.7,3.06-2,6.17-4.5,8A6.15,6.15,0,0,1,490.8,184.41Z" transform="translate(-1.32 -6.84)"/><path class="cls-31" d="M502.81,159.2a325.5,325.5,0,0,1-16.47-34.46l-17.51,12.41c5.33,17.68,12.68,34.75,22.87,50.11,1.81,2.73,6.14,3.32,8.77,1.37s4-5.19,4.7-8.38C506.75,173.32,506.26,165.42,502.81,159.2Z" transform="translate(-1.32 -6.84)"/><path class="cls-32" d="M502.19,158.19c.5,5.37,1,10.85-.2,16.11s-4.38,10.36-9.34,12.47" transform="translate(-1.32 -6.84)"/><line class="cls-32" x1="468.99" y1="133.47" x2="485.24" y2="121.56"/><polygon class="cls-12" points="524.98 159.2 522.65 130.31 517.19 125.41 510.59 158.47 524.98 159.2"/><path class="cls-12" d="M563,106.08a33.82,33.82,0,1,0-66.67,11.42c1.61,9.29,5.21,34.48,41.87,41.12,2.19.4,7.26.92,8.77-.71,4.62-5,12.23-11.66,13.6-18.38a20.39,20.39,0,0,0-.92-10.32,2.93,2.93,0,0,1,.16-2.23A33.62,33.62,0,0,0,563,106.08Z" transform="translate(-1.32 -6.84)"/><path class="cls-11" d="M543.17,121.64a10.34,10.34,0,1,1-10.59-10.08A10.34,10.34,0,0,1,543.17,121.64Z" transform="translate(-1.32 -6.84)"/><path class="cls-34" d="M540.64,122.23a7.51,7.51,0,1,1-7.7-7.33A7.52,7.52,0,0,1,540.64,122.23Z" transform="translate(-1.32 -6.84)"/><ellipse class="cls-11" cx="552.49" cy="120.14" rx="6.38" ry="8.93" transform="translate(-4.11 6.78) rotate(-1.41)"/><ellipse class="cls-34" cx="551.31" cy="121.19" rx="5.12" ry="7.17" transform="translate(-13.62 83.2) rotate(-9.23)"/><path class="cls-35" d="M542.1,132.26a5.3,5.3,0,0,1,2.5-4,7,7,0,0,1,5.77-.08,4.45,4.45,0,0,1,2.75,3.56" transform="translate(-1.32 -6.84)"/><path class="cls-34" d="M554.6,137.86a21.68,21.68,0,0,1-3.79,10.3,13.74,13.74,0,0,1-9.18,5.67,12.47,12.47,0,0,1-3.61-.08,19.06,19.06,0,0,1-4.56-1.38,24.08,24.08,0,0,1-9.3-7.16s0,0,0-.06a20.47,20.47,0,0,1-4.1-10.88l.91.09,32.36,3.36Z" transform="translate(-1.32 -6.84)"/><path class="cls-11" d="M553.3,137.72l-1.46,3.57a40.34,40.34,0,0,1-30.9-6.93Z" transform="translate(-1.32 -6.84)"/><path class="cls-36" d="M538.76,152.47a3.93,3.93,0,0,1-.74,1.28,19.06,19.06,0,0,1-4.56-1.38,24.08,24.08,0,0,1-9.3-7.16c1.85-1.83,5.34-2.31,8.78-1.08C537.25,145.69,539.86,149.43,538.76,152.47Z" transform="translate(-1.32 -6.84)"/><path class="cls-12" d="M502.56,140a11.26,11.26,0,0,1-4.57-.49c-2.31-.69-4.69-2.14-5.27-4.48-.63-2.54,1.3-5.26,3.81-6a7.68,7.68,0,0,1,7.18,2.11C507.1,134.46,508.51,139.29,502.56,140Z" transform="translate(-1.32 -6.84)"/><path class="cls-37" d="M502.32,137.47a2,2,0,0,1-1.08-3.72,4.68,4.68,0,0,0-2.21-1.81,3.33,3.33,0,0,0-3.06.44,2.35,2.35,0,0,0-.67,2.89" transform="translate(-1.32 -6.84)"/><path class="cls-34" d="M539.41,106.11a36.16,36.16,0,0,0-18.67,3.07A10.79,10.79,0,0,1,538,104.46,7.9,7.9,0,0,1,539.41,106.11Z" transform="translate(-1.32 -6.84)"/><path class="cls-34" d="M558.61,109.28a5.41,5.41,0,0,0-10.22-2.58C551.86,105.67,556.2,106.58,558.61,109.28Z" transform="translate(-1.32 -6.84)"/><path class="cls-17" d="M387.18,179.36c-4.7,5.62-11.37,10.62-12,17.92-.42,4.95,2.2,9.68,5.42,13.46a46.43,46.43,0,0,0,26.26,15,58.81,58.81,0,0,0,30.37-2.39c8.82-3,17.45-8.37,21.34-16.84,2-4.41,2.54-9.8.11-14-1.88-3.24-5.26-5.38-7.22-8.57-3.11-5-2.12-11.51-.57-17.21s3.59-11.63,2.24-17.38c-1.68-7.15-8.22-12.16-15-15a47.65,47.65,0,0,0-37.09.6c-3.36,1.51-7.13,4.18-6.72,8.26s1.83,8,1.7,12.38A38.92,38.92,0,0,1,387.18,179.36Z" transform="translate(-1.32 -6.84)"/><path class="cls-14" d="M435,209.22c5.56,8.8,27.5,13.4,37.82,11.12,5.93-1.31,13-5.22,16.83-9.88s14.82-23.31,2.47-50.33l-9.73.62c.92,6.91,1,4.8.65,11.76s-1.94,14-5.75,19.84c-2.29,3.5-5.56,6.63-9.64,7.49a17.8,17.8,0,0,1-8.78-.85,29.92,29.92,0,0,1-10.23-5.19c-6.77-5.15-16.84-.13-16.22,8.36A14.65,14.65,0,0,0,435,209.22Z" transform="translate(-1.32 -6.84)"/><circle class="cls-14" cx="441.11" cy="194.2" r="11.58"/><path class="cls-14" d="M486.63,170.59a7.73,7.73,0,0,0,5.35-.8,7.08,7.08,0,0,0,2.82-4.5c.81-3.95-1.2-7.74-3.45-10.87-1.71-2.38-1.54-4.4-2.62-7.13a2,2,0,0,0-.41-.72.81.81,0,0,0-.75-.23c-.8.16-.75,1.16-.7,1.42.56,2.55,1.06,5,.84,5.29s-.64.76-.95,0c-1.38-3.33-1.6-4.43-3.11-7.7a3.87,3.87,0,0,0-1.52-1.95.87.87,0,0,0-.84,0c-.34.24-.27.74-.2,1.15a25.26,25.26,0,0,0,2.7,8.72c.08.16-.52.36-.64.24a1.71,1.71,0,0,1-.31-.52c-1.35-3.49-2-4.4-2.85-8.05a6.2,6.2,0,0,0-.82-2.31,2,2,0,0,0-2.13-.87c-.35.39-.14,1.24,0,1.86.77,4.37.31,4.56,3.38,10.76-.17.25-.54.45-.72.21a23.83,23.83,0,0,1-3.06-5.68,29.72,29.72,0,0,0-1.75-3.91,2,2,0,0,0-.62-.81.8.8,0,0,0-.95,0c-.34.29-.3.75-.27,1.2a12.32,12.32,0,0,0,.93,5c1,3,3.76,7.31,5.52,10-1.06.78-2.44-.69-3.15-2.35a5.74,5.74,0,0,0-1.32-2.22,3.17,3.17,0,0,0-2.83-1,.62.62,0,0,0-.37.77,2.85,2.85,0,0,0,.5.79c1.23,1.63,1.17,2.95,2,4.8a18.77,18.77,0,0,0,4,5.2,14.29,14.29,0,0,0,5.42,3.54A15.44,15.44,0,0,0,486.63,170.59Z" transform="translate(-1.32 -6.84)"/><path class="cls-38" d="M489.28,167.44a9.71,9.71,0,0,0-7.43-6.93" transform="translate(-1.32 -6.84)"/><path class="cls-38" d="M488.94,156.15a9,9,0,0,0,.31,8.31" transform="translate(-1.32 -6.84)"/><path class="cls-19" d="M392.53,280.67c2.23,4.44,6.49,7.52,10.89,9.84a59.64,59.64,0,0,0,32.1,6.71c5.16-.39,10.54-1.58,14.4-5,5.56-4.95,6.62-13.22,6.37-20.67-.06-1.67-.15-3.36-.3-5a91.49,91.49,0,0,0-16.8-45.12c-5.26-7.27-19.39-5.92-27.51-2.07-7.79,14.55-16.6,28.94-20,45.09-.12.53-.23,1.07-.32,1.61C390.47,271,390.32,276.19,392.53,280.67Z" transform="translate(-1.32 -6.84)"/><path class="cls-19" d="M403.86,208a24.55,24.55,0,0,0,4.9,11.61,25.8,25.8,0,0,0,11.54,7.64,62.49,62.49,0,0,0,15.29,3.42c5.8.46,12.2-.94,16.23-5.42,4.56-5.11,5.62-11.48,3.52-18.09-2-6.35-7.33-11.58-13-14.94-.17-.12-.36-.22-.54-.33a37.27,37.27,0,0,0-21.49-4.68,22.7,22.7,0,0,0-7.28,1.85,15.81,15.81,0,0,0-7.85,7.05C403.37,199.69,403.23,204,403.86,208Z" transform="translate(-1.32 -6.84)"/><path class="cls-14" d="M415,188.17c-1.5,1.33,3.18,12.1,10,16,4.66,2.7,24,4.63,19.93-6.16a17.34,17.34,0,0,0-8.35-8.72c-.16-.12-8.33-3.22-15.32-2.62A16.7,16.7,0,0,0,415,188.17Z" transform="translate(-1.32 -6.84)"/><path class="cls-39" d="M442.08,192.57a19.76,19.76,0,0,1,4.28,5.63c1,1.82,1.49,4.05.62,5.92a7.8,7.8,0,0,1-4.26,3.27,25.88,25.88,0,0,1-18.24-1c-6.31-2.89-10.78-10-11-16.91" transform="translate(-1.32 -6.84)"/><path class="cls-14" d="M408.9,212.63c-8,6.67-28.1,2.94-37.23-2.4-5.23-3.07-10.71-8.95-13-14.58S351.75,168.92,371.8,147l9.07,3.58c-3,6.29-2.4,4.27-4.23,11s-2.45,13.93-.62,20.65c1.1,4,3.25,8,6.88,10.09a17.73,17.73,0,0,0,8.6,1.88,29.47,29.47,0,0,0,11.34-1.8c8-2.81,10.65,1.87,10.24,9C412.92,204.13,411.14,210.84,408.9,212.63Z" transform="translate(-1.32 -6.84)"/><ellipse class="cls-14" cx="405.5" cy="195.86" rx="7.52" ry="11.58"/><path class="cls-14" d="M381.16,157.32a17.22,17.22,0,0,1-4.24,2.67,7.58,7.58,0,0,1-4.92.4,9.93,9.93,0,0,1-4.63-3.59c-2.85-3.57-4.44-5.78-5.42-10.24-.28-1.26-.78-3.24.23-3.76a1.35,1.35,0,0,1,1.37.53,4.88,4.88,0,0,1,.5,1.51,11.6,11.6,0,0,0,1,2.89,2.74,2.74,0,0,0,1.13,1.56c.53-.24.43-.94.23-1.49a38.72,38.72,0,0,1-2.21-7.84,3.18,3.18,0,0,1,.11-2.07,1.33,1.33,0,0,1,2-.22c.77.93.94,2.67,1.3,4.12.54,2.2.88,2.32,1.87,4.35.21.22.84.22.89-.27-1.25-3.44-2-4.69-3.27-8.14a4.25,4.25,0,0,1-.35-2.54c.23-.84,1.27-1.49,2-1,.28.18.37.6.5.91,1.62,3.88,2,6,3.73,9.79a.6.6,0,0,0,.41-.11c.42-.15-1.8-4-2.51-7.06a2.57,2.57,0,0,1-.09-1.59,1.16,1.16,0,0,1,1.7-.14c1,1.32,2.42,5.32,3.34,7.87a12.12,12.12,0,0,0,3.21,5.64c.43.3,1.14-.27,1.25-.62-.77-1.77-1-2.37-.86-3.79a3.79,3.79,0,0,1,.47-1.41,1.61,1.61,0,0,1,1.13-.84,1.06,1.06,0,0,1,1.15.69,3.83,3.83,0,0,0-.35,2.75c.25,1,1.32,3.25,1.56,4.22A6.31,6.31,0,0,1,381.16,157.32Z" transform="translate(-1.32 -6.84)"/><path class="cls-40" d="M374.88,156.19a7,7,0,0,0-2.39-3.72,7,7,0,0,0-4.17-1.51" transform="translate(-1.32 -6.84)"/><path class="cls-40" d="M377.7,150.86a7.74,7.74,0,0,0-2.08,2.94" transform="translate(-1.32 -6.84)"/><path class="cls-17" d="M459,152.35c.6-10.36,2.46-20.71,1.58-31s-5.08-21.09-13.81-26.69c-6.08-3.9-13.59-4.84-20.81-4.89a53.21,53.21,0,0,0-16.57,2.11A27.79,27.79,0,0,0,395.62,101c-4.81,6.29-5.92,14.63-6.11,22.55a81.15,81.15,0,0,0,2.14,22.09,47.16,47.16,0,0,0,10,19.65c4.49,5.08,13.26,5.21,20,5.75,7.42.58,15.05-.18,21.86-3.16S458.53,159.78,459,152.35Z" transform="translate(-1.32 -6.84)"/><path class="cls-14" d="M401.68,167.86A113.82,113.82,0,0,1,393,117.71c.19-3.42.5-11.54,8-17.39,9.17-7.12,22-8.26,33.49-7.09a24.37,24.37,0,0,1,21,17.91,115.29,115.29,0,0,1,2.15,51.52c-2,10.58-14.79,14.83-25.49,16S405.86,177.79,401.68,167.86Z" transform="translate(-1.32 -6.84)"/><path class="cls-14" d="M399.31,151.34a12.37,12.37,0,0,0-9-1.28c-2.22.54-4.42,1.89-5.15,4.05a6.08,6.08,0,0,0,1.41,5.72,12.93,12.93,0,0,0,5.14,3.3,13.65,13.65,0,0,0,8,1C407.61,162.29,404.57,154.36,399.31,151.34Z" transform="translate(-1.32 -6.84)"/><path class="cls-41" d="M443.28,160.46a5.49,5.49,0,0,0,2.1-1.41,3.24,3.24,0,0,0,.88-2.32,3.3,3.3,0,0,0-2.6-2.85,5,5,0,0,0-3.91.91l-1.49-2.46" transform="translate(-1.32 -6.84)"/><path class="cls-12" d="M412.87,165.92a10.63,10.63,0,0,0,.92,2.3,14,14,0,0,0,3.54,4.12,18.11,18.11,0,0,0,10.53,3.92,17.88,17.88,0,0,0,4.94-.49,19.1,19.1,0,0,0,12.34-10.55l-1.66-.3-30.21-5.65h0A14.32,14.32,0,0,0,412.87,165.92Z" transform="translate(-1.32 -6.84)"/><path class="cls-11" d="M413.27,159.27l.09,1.47a52.47,52.47,0,0,0,26.81,7.92,8.4,8.4,0,0,0,3.31-3.74Z" transform="translate(-1.32 -6.84)"/><path class="cls-36" d="M413.79,168.22a14,14,0,0,0,3.54,4.12,18.11,18.11,0,0,0,10.53,3.92c1.06-2.75-.5-6.44-3.83-8.68-3.74-2.51-8.29-2.28-10.17.51C413.84,168.14,413.81,168.17,413.79,168.22Z" transform="translate(-1.32 -6.84)"/><path class="cls-41" d="M395.73,161.69a1.13,1.13,0,0,1-1-.86,1.84,1.84,0,0,1,.22-1.33,2.67,2.67,0,0,1,1.75-1.29,6.25,6.25,0,0,0-2.5-4.46,4.7,4.7,0,0,0-4.92-.28,3.84,3.84,0,0,0-1.7,4.48" transform="translate(-1.32 -6.84)"/><line class="cls-42" x1="449.83" y1="132.21" x2="455.31" y2="128.28"/><line class="cls-42" x1="447.13" y1="128.97" x2="450.99" y2="124.57"/><line class="cls-42" x1="449.99" y1="135.76" x2="454.93" y2="134.68"/><line class="cls-42" x1="410.77" y1="134.06" x2="403.9" y2="130.82"/><line class="cls-42" x1="412.16" y1="129.66" x2="407.76" y2="125.5"/><line class="cls-42" x1="409.61" y1="137.62" x2="403.36" y2="137.62"/><path class="cls-11" d="M437.07,143.18c.62,6.21,4.73,10.88,9.18,10.43s7.55-5.84,6.93-12-4.73-10.88-9.18-10.44S436.45,137,437.07,143.18Z" transform="translate(-1.32 -6.84)"/><path class="cls-43" d="M437.25,144.11c.44,4.4,3.36,7.71,6.51,7.39s5.36-4.13,4.91-8.53-3.35-7.72-6.5-7.4S436.81,139.71,437.25,144.11Z" transform="translate(-1.32 -6.84)"/><circle class="cls-11" cx="421.66" cy="144.23" r="13.05" transform="translate(-23.12 93.31) rotate(-13.21)"/><circle class="cls-43" cx="420.66" cy="144.92" r="9.34" transform="translate(-23.32 93.26) rotate(-13.23)"/><path class="cls-17" d="M458.58,124.7a35.67,35.67,0,0,0-2.71-11,10.73,10.73,0,0,0-3.09-4.52,11,11,0,0,0-4.67-1.82,42.18,42.18,0,0,0-12.93-.59,5,5,0,0,1-2.71,1.4c-1.64,0-2.93-1.52-4.56-1.68-6.22-.62-12.52.74-18.51,2.53a15.74,15.74,0,0,0-4.68,2.07,6.37,6.37,0,0,0-2.76,4.17c-.35,2.5.45,5,.67,7.56.28,3.09-2.37,5.95-4.74,8a93.54,93.54,0,0,0,3,27.16,24.06,24.06,0,0,0-6.89-8.48c-4-9.77-4.46-18.92-2.74-29.34.84-5.09,1-12,4-16.13a22.18,22.18,0,0,1,6.41-5.87c5.26-3.24,10.44-5.46,16.59-6.09,3.67-.38,9-.8,12.66-.31a44,44,0,0,1,12.59,3.47c5.16,2.37,9.31,7.81,11.91,12.86S458.57,119,458.58,124.7Z" transform="translate(-1.32 -6.84)"/><path class="cls-17" d="M440,127.21a17.39,17.39,0,0,1,12.3,1,7.83,7.83,0,0,0-8.1-3.93C442.29,124.68,440.35,126,440,127.21Z" transform="translate(-1.32 -6.84)"/><path class="cls-17" d="M413.82,129c3.44-2.31,10.31-3.31,16-.94-1.33-3.45-3.92-4.44-7.12-4.3S415.36,125.5,413.82,129Z" transform="translate(-1.32 -6.84)"/><path class="cls-14" d="M431.29,177.23,435.64,190c.13,1,.15,2.55-.49,3.24a5.26,5.26,0,0,1-2.29,1.34,12.47,12.47,0,0,1-12.73-3.36,4.82,4.82,0,0,1-1.67-4l.75-11.79Z" transform="translate(-1.32 -6.84)"/><path class="cls-24" d="M392.53,280.67c2.23,4.44,6.49,7.52,10.89,9.84a59.64,59.64,0,0,0,32.1,6.71c5.16-.39,10.54-1.58,14.4-5,5.56-4.95,6.62-13.22,6.37-20.67-.06-1.67-.15-3.36-.3-5a148.2,148.2,0,0,1-64.63-.49C390.47,271,390.32,276.19,392.53,280.67Z" transform="translate(-1.32 -6.84)"/><path class="cls-24" d="M428.07,292.44c-9.56-10.95-23.39-19.92-35.43-22.24l-8.57,58.59L404,330Z" transform="translate(-1.32 -6.84)"/><path class="cls-24" d="M426.91,294.75c.16.08.29.23.47.23l18.06,36.82,16.9-.46c.29-21.72-.55-39.45-7.64-60Z" transform="translate(-1.32 -6.84)"/><path class="cls-14" d="M633.48,211.55c-3.57,3.07-7.32,6.27-11.28,9.4-12,9.45-25.78,17.89-41.38,18-31.33-1.22-26.8-47.08-19.82-67.78,1.75-4.85,9-2.53,7.61,2.44-4.12,14.22-5.08,30.58-.63,44.61,4.82,15.7,22.29,9.4,32.71,3.1a115.27,115.27,0,0,0,17.79-13.67c2-1.85,4.09-3.72,6.12-5.63C631,196.31,639.65,205.53,633.48,211.55Z" transform="translate(-1.32 -6.84)"/><path class="cls-14" d="M565.16,178.59c-3-.85-6.19-2-7.14-5s-.89-6.21-.83-9.36c.09-3.95-.58-8,.07-11.89.11-.63.45-1.43,1.08-1.35s.75.86.76,1.46l.12,8.82c.24.15,1,.21,1.16,0a.65.65,0,0,0,0-.78,42.25,42.25,0,0,1,1.89-14c.19-.64.57-1.41,1.24-1.37a1,1,0,0,1,.85.73,3.11,3.11,0,0,1,.11,1.18c-.17,3.81-.33,7.61-.49,11.42.21.25.59.55.88.39a.72.72,0,0,0,.32-.83l.2-2.16a61.94,61.94,0,0,1,.69-11.94,4.24,4.24,0,0,1,.4-1.41,1.47,1.47,0,0,1,1.16-.8,5.69,5.69,0,0,1,1.1,3.8q0,6.52,0,13.05a1.07,1.07,0,0,0,1.36.07c.91-3.91,2.17-7.61,3.08-11.52a3.11,3.11,0,0,1,.91-1.85c.56-.43,1.59-.25,1.7.45a11.88,11.88,0,0,1,0,3.81,78.65,78.65,0,0,1-2.34,10.27l.44,5.42c-.06.52.8,1.06,1.27.82a24.57,24.57,0,0,1,3.5-3.94,6.29,6.29,0,0,1,2.53-1.81,2.64,2.64,0,0,1,2.87.69,25.73,25.73,0,0,0-6.21,7.69c-1.62,2.92-2.05,6.87-4.59,9S568.37,179.5,565.16,178.59Z" transform="translate(-1.32 -6.84)"/><path class="cls-44" d="M566.22,175.09a18.73,18.73,0,0,1,1.83-4.82,6.33,6.33,0,0,1,4-3.07" transform="translate(-1.32 -6.84)"/><path class="cls-44" d="M563.07,162.57a29.46,29.46,0,0,1,1.49,8.74" transform="translate(-1.32 -6.84)"/><path class="cls-45" d="M633.75,211.59c-3.72,3.2-7.63,6.54-11.76,9.8l-3.88-13.88q3.21-2.89,6.38-5.86C631.17,195.7,640.19,205.31,633.75,211.59Z" transform="translate(-1.32 -6.84)"/><line class="cls-46" x1="621.18" y1="213.71" x2="617.7" y2="200.58"/><path class="cls-3" d="M659.59,295.49c0,9.68-8.14,12.79-18.16,12.79s-18.15-3.11-18.15-12.79a19.89,19.89,0,0,1,.34-3.54c1.61-8.94,9-18.72,17.81-18.72,9,0,16.54,10.25,17.92,19.36A18,18,0,0,1,659.59,295.49Z" transform="translate(-1.32 -6.84)"/><polygon class="cls-3" points="636.97 300.98 622.68 283.98 614.7 322.74 627.19 322.48 636.97 300.98"/><polygon class="cls-3" points="639.81 300.46 643.28 322.1 655.9 321.84 657.32 288.23 639.81 300.46"/><path class="cls-45" d="M663.49,208.3,646,288.56h-9.54l-9-80.53a5.18,5.18,0,0,1,6.59-5.55l2.78.8,8.06,2.35,6.27-3.18,6-3.06C659.56,198.18,664,205.64,663.49,208.3Z" transform="translate(-1.32 -6.84)"/><path class="cls-45" d="M630.78,218.87a11.57,11.57,0,0,0-8.11,12.3c.59,5.2,4.36,9.86,9.1,13,.09,0,.24-.46.34-.45Z" transform="translate(-1.32 -6.84)"/><path class="cls-14" d="M650.75,209.31a18.91,18.91,0,0,1-5.55,6.3,55.41,55.41,0,0,1-7.31,4.17,41.27,41.27,0,0,1-3-5.6,13,13,0,0,1-1-6.17,8,8,0,0,1,2.35-5l8.85,2.58,6.88-3.49A11.56,11.56,0,0,1,650.75,209.31Z" transform="translate(-1.32 -6.84)"/><path class="cls-45" d="M659.54,292.7l-36.12-.65c1.63-9,9.09-18.92,18-18.92C650.57,273.13,658.15,283.49,659.54,292.7Z" transform="translate(-1.32 -6.84)"/><path class="cls-46" d="M634.48,202.94a10.13,10.13,0,0,0-2.38,6.45,15.56,15.56,0,0,0,1.56,6.79,33,33,0,0,0,3.72,5.94,45.11,45.11,0,0,0,8.43-4.48,18.42,18.42,0,0,0,6.17-6.75,11.94,11.94,0,0,0,.86-9" transform="translate(-1.32 -6.84)"/><path class="cls-46" d="M628.79,219.61l-1-10.6" transform="translate(-1.32 -6.84)"/><path class="cls-46" d="M632.71,238.91a4,4,0,0,0,1.45,1.81,16.1,16.1,0,0,0,17.14,1.73" transform="translate(-1.32 -6.84)"/><polygon class="cls-14" points="646.07 154.6 634.93 201.52 647.98 202.21 651.22 154.26 646.07 154.6"/><path class="cls-47" d="M696.39,140.59a3.53,3.53,0,0,0,.14-6.05,3.51,3.51,0,0,0-1.16-6,3.52,3.52,0,0,0-1.11-5.86,3.51,3.51,0,0,0-1.15-5.62,3.51,3.51,0,0,0-2-4.71,3.54,3.54,0,0,0-3.66-5.09,2.62,2.62,0,0,0-.38.09,3.5,3.5,0,0,0-3.26-5.38,3.6,3.6,0,0,0,.3-2,3.55,3.55,0,0,0-4-3,3.77,3.77,0,0,0-1.06.35,3.49,3.49,0,0,0,.05-1.21,3.54,3.54,0,0,0-4-3,4.31,4.31,0,0,0-.62.15,1.93,1.93,0,0,0,0-.24,3.53,3.53,0,0,0-5.4-2.48.81.81,0,0,0,0-.22,3.54,3.54,0,0,0-5.95-2,3.54,3.54,0,0,0-4-2.89,3.63,3.63,0,0,0-1.93.94,12.38,12.38,0,0,1-9.91-2.61,3.53,3.53,0,0,1-6.31.13,3.53,3.53,0,0,0-2.89,2.51,3.51,3.51,0,0,0-6.26,1.54,3.56,3.56,0,0,0-3.09-1.09,3.52,3.52,0,0,0-3,3.52,3.54,3.54,0,0,0-5.65,3.3,3.44,3.44,0,0,0-3.28.06,3.49,3.49,0,0,0-1.65,3.78,3.56,3.56,0,0,0-4.89,3.28,3.39,3.39,0,0,0,.17,1,4.07,4.07,0,0,0-.49,0,3.54,3.54,0,0,0-3,5.45c-.12,0-.24,0-.37,0a3.53,3.53,0,0,0-3,5.42,3.54,3.54,0,0,0-3.38,3.53,3.49,3.49,0,0,0,.61,2,3.51,3.51,0,0,0-1.32,6.18,3.52,3.52,0,0,0-.82,6.13,3.53,3.53,0,0,0-.51,6.15,3.51,3.51,0,0,0-1.31,2.73,3.54,3.54,0,0,0,2,3.2,3.47,3.47,0,0,0-1,2.47,3.54,3.54,0,0,0,2.11,3.23,3.52,3.52,0,0,0,.51,6.17,3.5,3.5,0,0,0-.4,2.17,3.54,3.54,0,0,0,3,3,3.49,3.49,0,0,0-.46,2.28,3.53,3.53,0,0,0,3.63,3,3.53,3.53,0,0,0,3.85,4.62l.16,0a3.46,3.46,0,0,0,0,1.16,3.53,3.53,0,0,0,4,3,3.43,3.43,0,0,0,.65-.16,3.47,3.47,0,0,0,0,1,3.55,3.55,0,0,0,4,3,3.94,3.94,0,0,0,.92-.28,3.54,3.54,0,0,0,4,2.85,3.25,3.25,0,0,0,1.17-.4,3.5,3.5,0,0,0,3.53,2.08,3.53,3.53,0,0,0,3.93,2.7,3.48,3.48,0,0,0,1.78-.81,3.52,3.52,0,0,0,3.37,1.45,3.48,3.48,0,0,0,2.29-1.33,15.41,15.41,0,0,1,8.53.82,3.53,3.53,0,0,0,2.93-2.66,10,10,0,0,1,9.95.73,3.53,3.53,0,0,0,3-3.49,3.52,3.52,0,0,0,6.11-1.64,3.52,3.52,0,0,0,5.73-2.94,3.43,3.43,0,0,0,1.75.21,3.53,3.53,0,0,0,3-4,4,4,0,0,0-.21-.79,3.48,3.48,0,0,0,1.07,0,3.55,3.55,0,0,0,3-4l0-.09a4.18,4.18,0,0,0,.5,0,3.54,3.54,0,0,0,3-4,2.1,2.1,0,0,0-.06-.24h.15a3.54,3.54,0,0,0,3-4,3.51,3.51,0,0,0,2.25-5.64s0-.08,0-.12a3.53,3.53,0,0,0,2.57-3.9,3.5,3.5,0,0,0-.68-1.6,3.54,3.54,0,0,0,2-3.68A3.63,3.63,0,0,0,696.39,140.59Z" transform="translate(-1.32 -6.84)"/><path class="cls-14" d="M677.25,141.37c1.09-33.41-41.81-47.66-58.2-20.2l-.07,0c-13,21.6-3.54,54.06,16.52,66.77,1.06.68,4,2.38,5.18,2C660.45,184,677.42,165.14,677.25,141.37Z" transform="translate(-1.32 -6.84)"/><path class="cls-14" d="M670.73,164.29c2.54-.15,5.34,1.18,6.1,3.61a5.67,5.67,0,0,1-1.78,5.63,11.59,11.59,0,0,1-5.58,2.59,10,10,0,0,1-4.9.07,4.75,4.75,0,0,1-3.41-3.25C660.09,168.28,667,164.52,670.73,164.29Z" transform="translate(-1.32 -6.84)"/><path class="cls-44" d="M666.37,173.79a2.39,2.39,0,0,0,2.14-1.4,2.36,2.36,0,0,0-.44-2.51,6.15,6.15,0,0,1,3.48-1.91,3.91,3.91,0,0,1,2.81.37,2.29,2.29,0,0,1,1.09,2.46" transform="translate(-1.32 -6.84)"/><line class="cls-48" x1="620.41" y1="146.53" x2="615.81" y2="145.49"/><line class="cls-48" x1="621.71" y1="143.98" x2="616.98" y2="141.26"/><line class="cls-48" x1="620.71" y1="150.59" x2="616.31" y2="150.36"/><line class="cls-48" x1="654.29" y1="146.98" x2="659.08" y2="145.73"/><line class="cls-48" x1="652.02" y1="144.77" x2="656.87" y2="141.8"/><line class="cls-48" x1="654.04" y1="149.78" x2="658.55" y2="150.86"/><ellipse class="cls-11" cx="626.14" cy="148.2" rx="6.77" ry="9.35"/><ellipse class="cls-49" cx="628.73" cy="155.28" rx="7.25" ry="5.25" transform="matrix(0.03, -1, 1, 0.03, 451.88, 771.82)"/><circle class="cls-11" cx="646.53" cy="155.12" r="10.26" transform="translate(-11.19 254.09) rotate(-22.65)"/><circle class="cls-49" cx="646.83" cy="155.47" r="7.65" transform="translate(78.2 496.07) rotate(-45)"/><path class="cls-50" d="M655.22,168a32.08,32.08,0,0,1-2.79,7.45c-.23.41-.46.8-.7,1.17a14.89,14.89,0,0,1-6.82,5.81,11.19,11.19,0,0,1-1.07.36,10.1,10.1,0,0,1-7.71-.86,11.51,11.51,0,0,1-3.9-4.09,37.39,37.39,0,0,1-2.37-5.41l1-.19,23.67-4.11Z" transform="translate(-1.32 -6.84)"/><path class="cls-11" d="M654.52,168.11a12,12,0,0,1-5.76,4.61c-5,2.29-10.91,2.26-16.46,2.26l-1.45-2.76Z" transform="translate(-1.32 -6.84)"/><path class="cls-19" d="M652.43,175.43c-.23.41-.46.8-.7,1.17a14.89,14.89,0,0,1-6.82,5.81,11.19,11.19,0,0,1-1.07.36,5.76,5.76,0,0,1,.76-6.28c1.95-2.47,5.31-3.07,7.5-1.35C652.2,175.24,652.33,175.32,652.43,175.43Z" transform="translate(-1.32 -6.84)"/><path class="cls-44" d="M642.78,189.23l7.39-3.42" transform="translate(-1.32 -6.84)"/><path class="cls-47" d="M620,143.93a12.81,12.81,0,0,1,11-3.15,1.31,1.31,0,0,1,1.06,1.53,1.29,1.29,0,0,1-1.52,1,10.92,10.92,0,0,0-9.71,1.54.63.63,0,0,1-.8-1Z" transform="translate(-1.32 -6.84)"/><path class="cls-47" d="M638.14,141.78c5.77-3.36,13.44-1.91,18,2.8a.76.76,0,0,1-1.05,1.1c-4.18-3.92-10.82-4.93-15.66-1.78a1.23,1.23,0,1,1-1.24-2.12Z" transform="translate(-1.32 -6.84)"/><path class="cls-47" d="M673.18,163.32a14.28,14.28,0,0,0-5.76,4.8l-4.27.88c7-10.26,8-24.11,3.53-35.69a9.66,9.66,0,0,0-7.48-5.66c-2.51-.33-3.77,1.11-5.53,2.53a21.5,21.5,0,0,1-6.29,3.43,47.88,47.88,0,0,1-9.71,2.09,49.43,49.43,0,0,1-14.21.27,22.59,22.59,0,0,1-9.73-3.88c-1.23-.9-2.62-1.87-2.88-3.37a14.68,14.68,0,0,1,.54-5,31,31,0,0,1,10.67-16.84c6.7-5.53,15.38-8.28,24-8.92a33.26,33.26,0,0,1,15.15,1.93c4.36,1.81,8.07,4.89,11.6,8a36.92,36.92,0,0,1,7.5,8.29c2.92,4.86,3.66,10.71,3.81,16.39A51.66,51.66,0,0,1,682.35,149C680.74,154.27,678.21,161,673.18,163.32Z" transform="translate(-1.32 -6.84)"/><path class="cls-47" d="M618.46,132.33a3,3,0,1,1-3-3A3,3,0,0,1,618.46,132.33Z" transform="translate(-1.32 -6.84)"/><path class="cls-47" d="M622.52,134.91a3,3,0,1,1-3-3A3,3,0,0,1,622.52,134.91Z" transform="translate(-1.32 -6.84)"/><path class="cls-47" d="M627.73,135.62a3,3,0,1,1-3-3A3,3,0,0,1,627.73,135.62Z" transform="translate(-1.32 -6.84)"/><path class="cls-47" d="M633,135.75a3,3,0,1,1-3-3A3,3,0,0,1,633,135.75Z" transform="translate(-1.32 -6.84)"/><path class="cls-47" d="M638.42,135.94a3,3,0,1,1-3-3A3,3,0,0,1,638.42,135.94Z" transform="translate(-1.32 -6.84)"/><path class="cls-47" d="M643.38,135.17a3,3,0,1,1-3-3A3,3,0,0,1,643.38,135.17Z" transform="translate(-1.32 -6.84)"/><path class="cls-47" d="M648.92,134.65a3,3,0,1,1-3-3A3,3,0,0,1,648.92,134.65Z" transform="translate(-1.32 -6.84)"/><path class="cls-47" d="M653.3,132.91a3,3,0,1,1-3-3A3,3,0,0,1,653.3,132.91Z" transform="translate(-1.32 -6.84)"/><path class="cls-47" d="M657.35,130.27a3,3,0,1,1-3-3A3,3,0,0,1,657.35,130.27Z" transform="translate(-1.32 -6.84)"/><circle class="cls-47" cx="657.61" cy="121.88" r="2.99"/><path class="cls-47" d="M666.69,129.44a3,3,0,1,1-3-3A3,3,0,0,1,666.69,129.44Z" transform="translate(-1.32 -6.84)"/><path class="cls-47" d="M669.52,133.62a3,3,0,1,1-3-3A3,3,0,0,1,669.52,133.62Z" transform="translate(-1.32 -6.84)"/><circle class="cls-47" cx="667.72" cy="131.09" r="2.99"/><path class="cls-47" d="M672.94,141.84a3,3,0,1,1-3.54-2.33A3,3,0,0,1,672.94,141.84Z" transform="translate(-1.32 -6.84)"/><path class="cls-47" d="M673.71,146.35a3,3,0,1,1-3.54-2.33A3,3,0,0,1,673.71,146.35Z" transform="translate(-1.32 -6.84)"/><path class="cls-47" d="M674.22,151a3,3,0,1,1-3.53-2.33A3,3,0,0,1,674.22,151Z" transform="translate(-1.32 -6.84)"/><path class="cls-47" d="M673,155.27a3,3,0,1,1-3.53-2.33A3,3,0,0,1,673,155.27Z" transform="translate(-1.32 -6.84)"/><path class="cls-47" d="M672,159.74a3,3,0,1,1-3.53-2.33A3,3,0,0,1,672,159.74Z" transform="translate(-1.32 -6.84)"/><path class="cls-44" d="M632.25,168.81a3.6,3.6,0,0,1-2.43-.78,3,3,0,0,1-1.07-2.29,2.52,2.52,0,0,1,1.28-2.13,2.18,2.18,0,0,1,2.43.28" transform="translate(-1.32 -6.84)"/><path class="cls-14" d="M711.05,118.83c-.2,23.73-7.7,47.14-20.59,67.09a125.92,125.92,0,0,1-19.33,23c-1.43,1.38-2.89,2.68-4.4,4-9.06,7.31-14.86-9-10.67-13.39,3.43-3.61,7.76-6.3,11.3-9.84a113.51,113.51,0,0,0,25.8-40.21c6.59-18.78,11.33-43.1,2.3-61.33a4.52,4.52,0,0,1,7.81-4.53C709.83,94.2,711.26,106.85,711.05,118.83Z" transform="translate(-1.32 -6.84)"/><path class="cls-14" d="M705,86.87a14.43,14.43,0,0,1-21.43-8.53c-.59-2.17.71-4.66.81-6.91a.53.53,0,0,1,.55-.52,1.75,1.75,0,0,1,.91.22c1.51.69,1.45,3.28.84,4.83-.29.75.42,1.49,1.08,2a3,3,0,0,0,2.32.5,10.37,10.37,0,0,0,.3-5c-1.93-3.63-4.37-7.07-4.71-9.49a2,2,0,0,1,.61-1.63,1.23,1.23,0,0,1,1.77.24c2,3.63,2.81,5.22,4.83,8.85.25.44,1.05.61,1.56.62s1-.45.93-1a76.92,76.92,0,0,1-2.5-12.36,2.6,2.6,0,0,1,.11-1.24c.16-.38,1.67-1.34,2.59-.3.73.83.66,2.05.93,3.12l2.64,10.39c.16.62,1.48.63,1.78.07-.25-3.19,0-6.43-.26-9.63a2.29,2.29,0,0,1,.6-2.2c.56-.52,2.09,0,2.13.75.14,2.68.35,4.84.72,7.5.22,1.56.51,3.27,1.71,4.29.28.24.87-.3,1-.63a36.93,36.93,0,0,0,1.47-5.11,4.74,4.74,0,0,1,.53-1.32,1.63,1.63,0,0,1,1.15-.76c.75-.06,1.36,1,1.38,1.79a28.4,28.4,0,0,1-1.15,7.54C709,77.85,709.36,84.23,705,86.87Z" transform="translate(-1.32 -6.84)"/><path class="cls-44" d="M691.09,78.41a10,10,0,0,1,4-.1,5,5,0,0,1,2.85,1.93,5,5,0,0,1,.93,3.32" transform="translate(-1.32 -6.84)"/><path class="cls-44" d="M700.29,81.11a6.24,6.24,0,0,1,1.9-3.36,12.59,12.59,0,0,0,2.45-3.06" transform="translate(-1.32 -6.84)"/><path class="cls-44" d="M693.57,73.38a19.27,19.27,0,0,1,12.26-1" transform="translate(-1.32 -6.84)"/><path class="cls-45" d="M671.43,209.17c-1.48,1.43-8.4,7.16-10,8.51-9.35,7.55-9-15.5-5.6-18.21a135.27,135.27,0,0,0,11.66-10.16Z" transform="translate(-1.32 -6.84)"/><path class="cls-46" d="M661.65,215.06a29.73,29.73,0,0,1-3.24-16.61" transform="translate(-1.32 -6.84)"/><line class="cls-46" x1="669" y1="202.46" x2="665.22" y2="184.65"/></g></g></g></svg>