<svg xmlns="http://www.w3.org/2000/svg" viewBox="0 0 400 401"><defs><style>.cls-1{fill:#fff;}.cls-2{font-size:132.87px;font-family:OpenSans-Bold, Open Sans;font-weight:700;letter-spacing:-0.1em;}.cls-2,.cls-3{fill:#00578c;}</style></defs><g id="Capa_2" data-name="Capa 2"><g id="Capa_1-2" data-name="Capa 1"><rect class="cls-1" width="400" height="401"/><text class="cls-2" transform="translate(22.01 239.36)"><tspan xml:space="preserve">T    uch</tspan></text><path class="cls-3" d="M155.4,199.49c0,6.64-1.55,12.71-6.12,17.7-9.44,10.32-24.28,7.49-29.44-5.65a22.37,22.37,0,0,1-1.6-9,4.24,4.24,0,0,1,3.68-4.21c1.9-.09,3.41,1.48,3.71,3.88.07.56.07,1.13.11,1.69a12.47,12.47,0,0,0,2.65,6.92c5.16,6.54,14.66,4.89,18.1-3.11,2.23-5.19,1.78-10.42.3-15.67-3-10.58-9.54-17.45-20.23-19.28-12.17-2.08-23.77,5-28.44,16.79-.54,1.38-1,2.81-1.36,4.24-.73,2.55-2.58,3.95-4.56,3.42s-3.25-2.71-2.61-5.3c2.51-10.18,7.88-18.29,16.83-23.57,19-11.23,42.06-1,47.55,21a55.65,55.65,0,0,1,1.12,5.58C155.32,196.39,155.31,198,155.4,199.49Z"/><path class="cls-3" d="M163.07,200.07c-.11-7.66-1.25-14.76-5.12-21.23a6.22,6.22,0,0,1-.3-4,3.45,3.45,0,0,1,3.08-2.78,3.4,3.4,0,0,1,3.48,1.93,39.76,39.76,0,0,1,5.57,16.31c2.46,19.86-2.74,37.22-16.4,51.71a51.52,51.52,0,0,1-4.15,3.79c-2.09,1.79-4,1.83-5.44.2a4.82,4.82,0,0,1,.45-6.42c1.91-1.81,4-3.48,5.74-5.43C158.7,224.5,162.7,212.88,163.07,200.07Z"/><path class="cls-3" d="M133.2,257.93c-18.45-1.42-31.15-11.34-39.22-28A58.36,58.36,0,0,1,91,222a7.22,7.22,0,0,1-.09-3.46,3.84,3.84,0,0,1,3.6-3,3.64,3.64,0,0,1,3.33,2.87A49.22,49.22,0,0,0,103.49,231c6.5,10,15.33,16.36,27.08,18.06a45.3,45.3,0,0,0,5.09.27,3.87,3.87,0,0,1,4,4,4.2,4.2,0,0,1-3.76,4.56C135,258,134.1,257.93,133.2,257.93Z"/><path class="cls-3" d="M122.38,181c9.2,0,16.65,6.84,17.8,16.31a36.82,36.82,0,0,1,.3,4.45c0,2.51-1.76,4.48-3.86,4.46s-3.52-1.8-3.55-4.35c0-3.75-.92-7.13-3.82-9.66-6-5.25-15.79-2.38-18.16,5.33a8.39,8.39,0,0,1-.57,1.57,3.55,3.55,0,0,1-3.9,1.95,3.45,3.45,0,0,1-2.76-3.23,10.46,10.46,0,0,1,.46-3.47A18.66,18.66,0,0,1,122.38,181Z"/><path class="cls-3" d="M134.25,240.67c-14.31-.52-25.55-11.59-29.24-25.36a5.92,5.92,0,0,1,.2-3.14,3.53,3.53,0,0,1,3.54-2.56,3.37,3.37,0,0,1,3.24,2.73,30.39,30.39,0,0,0,6.2,11.5c4.85,5.45,10.83,8.33,18.07,8.27,2.52,0,4.06,1.34,4.21,3.75a4.24,4.24,0,0,1-3.82,4.8C135.86,240.73,135.05,240.67,134.25,240.67Z"/><path class="cls-3" d="M124.8,146c12.63.88,23.08,6.26,31.47,15.94,2.2,2.55,1.58,6.38-1.17,7.55-1.53.65-2.87.27-4.14-1.22a37.52,37.52,0,0,0-21.92-13,52.58,52.58,0,0,0-6.26-.7,3.87,3.87,0,0,1-3.92-4.11,4.28,4.28,0,0,1,4-4.53C123.5,145.87,124.15,146,124.8,146Z"/><path class="cls-3" d="M96.05,206.13c0,2.49-1.69,4.44-3.84,4.45a3.87,3.87,0,0,1-3.61-4.11c0-2.37,1.84-4.47,3.89-4.48S96.06,203.81,96.05,206.13Z"/></g></g></svg>