<svg xmlns="http://www.w3.org/2000/svg" viewBox="0 0 352.31 119.53"><defs><style>.cls-1{isolation:isolate;}.cls-2{fill:#fff;}</style></defs><g id="Capa_2" data-name="Capa 2"><g id="Capa_1-2" data-name="Capa 1"><g id="Capa_2-2" data-name="Capa 2"><g id="Capa_1-2-2" data-name="Capa 1-2"><g class="cls-1"><g class="cls-1"><path class="cls-2" d="M45.87,101H25.76V22.84H0V6.1H71.62V22.84H45.87Z"/><path class="cls-2" d="M222.86,28.42V101H207.67L205,91.67h-1a20.06,20.06,0,0,1-5.84,6,25.74,25.74,0,0,1-7.72,3.44,34.76,34.76,0,0,1-8.76,1.1,31.14,31.14,0,0,1-13.56-2.76,19.85,19.85,0,0,1-9-8.59q-3.21-5.85-3.21-15.19V28.42h19.79V70.78q0,7.78,2.79,11.74t8.89,4q6,0,9.47-2.75a14.83,14.83,0,0,0,4.83-8.11,52.62,52.62,0,0,0,1.4-13.08V28.42Z"/><path class="cls-2" d="M259.78,102.25q-10.77,0-18.36-3.93a25.71,25.71,0,0,1-11.54-12.16q-4-8.23-4-21.09,0-13.29,4.51-21.7A28.2,28.2,0,0,1,243,31a41.43,41.43,0,0,1,18.59-4,51.08,51.08,0,0,1,13,1.46A51.64,51.64,0,0,1,284.11,32L278.27,47.3c-3.11-1.26-6-2.28-8.69-3.09a28.33,28.33,0,0,0-8-1.2,14.57,14.57,0,0,0-8.63,2.44,14.32,14.32,0,0,0-5.13,7.3,37.78,37.78,0,0,0-1.69,12.19,33.7,33.7,0,0,0,1.82,11.94,14.23,14.23,0,0,0,5.26,7,14.65,14.65,0,0,0,8.37,2.3,33.67,33.67,0,0,0,11-1.65,41.69,41.69,0,0,0,9.34-4.64V96.86a32.9,32.9,0,0,1-9.5,4.12A51.68,51.68,0,0,1,259.78,102.25Z"/><path class="cls-2" d="M305.15,0V20.57c0,3.59-.12,7-.36,10.25s-.42,5.53-.55,6.87h1a21.19,21.19,0,0,1,5.54-6.09,22.12,22.12,0,0,1,7.11-3.44,30.35,30.35,0,0,1,8.37-1.11A31.77,31.77,0,0,1,340,29.81a19.93,19.93,0,0,1,9.08,8.63q3.24,5.88,3.24,15.21V101H332.53V58.58q0-7.78-2.86-11.74t-8.82-4q-6,0-9.41,2.76a15,15,0,0,0-4.87,8.11,51.57,51.57,0,0,0-1.42,13.07V101H285.36V0Z"/></g></g><path class="cls-2" d="M130.73,61.09c0,6.64-1.55,12.71-6.12,17.7-9.45,10.3-24.27,7.48-29.45-5.7a22.34,22.34,0,0,1-1.59-9,4.24,4.24,0,0,1,3.68-4.21c1.9-.09,3.41,1.48,3.71,3.88.07.56.07,1.13.11,1.69a12.48,12.48,0,0,0,2.65,6.92c5.16,6.54,14.66,4.89,18.1-3.11,2.23-5.19,1.78-10.42.3-15.67-3-10.58-9.54-17.45-20.23-19.28-12.17-2.08-23.77,5-28.44,16.79a35.44,35.44,0,0,0-1.36,4.24c-.74,2.55-2.58,4-4.56,3.42s-3.25-2.71-2.61-5.3c2.51-10.18,7.88-18.29,16.83-23.57,19-11.23,42.06-1,47.55,21a55.65,55.65,0,0,1,1.12,5.58C130.64,58,130.64,59.54,130.73,61.09Z"/><path class="cls-2" d="M138.4,61.66c-.11-7.66-1.25-14.76-5.12-21.23a6.24,6.24,0,0,1-.31-4,3.47,3.47,0,0,1,3.09-2.78,3.42,3.42,0,0,1,3.48,1.93,39.66,39.66,0,0,1,5.57,16.31c2.46,19.86-2.74,37.22-16.4,51.71a53.1,53.1,0,0,1-4.15,3.79c-2.09,1.79-4,1.83-5.44.2a4.82,4.82,0,0,1,.45-6.42c1.91-1.81,4-3.48,5.73-5.43C134,86.09,138,74.47,138.4,61.66Z"/><path class="cls-2" d="M108.53,119.52c-18.45-1.43-31.19-11.34-39.19-28a58.22,58.22,0,0,1-3-7.89,7,7,0,0,1-.09-3.46,3.85,3.85,0,0,1,3.6-3A3.64,3.64,0,0,1,73.18,80a49.34,49.34,0,0,0,5.63,12.55c6.5,10,15.33,16.36,27.07,18.06a43.45,43.45,0,0,0,5.1.27,3.87,3.87,0,0,1,4,3.74v.26a4.2,4.2,0,0,1-3.76,4.56A18.52,18.52,0,0,1,108.53,119.52Z"/><path class="cls-2" d="M97.71,42.6c9.2,0,16.65,6.84,17.8,16.31a41.39,41.39,0,0,1,.3,4.45c0,2.51-1.76,4.48-3.86,4.46s-3.52-1.8-3.55-4.35c0-3.75-.92-7.13-3.82-9.66-6-5.25-15.79-2.38-18.16,5.33a8.66,8.66,0,0,1-.57,1.57A3.55,3.55,0,0,1,82,62.66a3.45,3.45,0,0,1-2.76-3.23A10.46,10.46,0,0,1,79.65,56,18.66,18.66,0,0,1,97.71,42.6Z"/><path class="cls-2" d="M109.58,102.26C95.27,101.74,84,90.67,80.34,76.9a5.88,5.88,0,0,1,.2-3.14,3.53,3.53,0,0,1,3.54-2.56,3.36,3.36,0,0,1,3.26,2.73,30.35,30.35,0,0,0,6.2,11.5c4.85,5.45,10.82,8.33,18.07,8.27,2.52,0,4.06,1.34,4.2,3.75a4.24,4.24,0,0,1-3.6,4.78l-.21,0C111.19,102.32,110.34,102.26,109.58,102.26Z"/><path class="cls-2" d="M100.13,7.58c12.62.88,23.08,6.26,31.46,15.94,2.21,2.55,1.59,6.38-1.16,7.55-1.53.65-2.87.27-4.14-1.22a37.56,37.56,0,0,0-21.92-13,52.58,52.58,0,0,0-6.26-.7,3.87,3.87,0,0,1-3.93-3.81c0-.1,0-.2,0-.3a4.27,4.27,0,0,1,4-4.53h0A15.8,15.8,0,0,1,100.13,7.58Z"/><path class="cls-2" d="M71.34,67.72c0,2.49-1.7,4.44-3.84,4.45a3.87,3.87,0,0,1-3.57-4.08c0-2.37,1.84-4.47,3.89-4.48S71.39,65.4,71.34,67.72Z"/></g></g></g></g></svg>